<svg xmlns="http://www.w3.org/2000/svg" width="265.46" height="212.854" viewBox="0 0 265.46 212.854">
  <g id="Question1" transform="translate(0.5 0.5)">
    <path id="Path_207" data-name="Path 207" d="M104.346,61l-7.193,7.193L21.2,141.607V73.694" transform="translate(22.806 67.21)" fill="#fff" stroke="#e6d0a8" stroke-miterlimit="10" stroke-width="3"/>
    <path id="Path_208" data-name="Path 208" d="M33.616,146.17H22.826C9.709,146.17.4,137.919.4,126.706V.4H243.915c12.906,0,20.945,8.674,20.945,20.1V146.382H125.014" transform="translate(-0.4 -0.4)" fill="#fff" stroke="#e6d0a8" stroke-miterlimit="10" stroke-width="1"/>
    <path id="Path_843" data-name="Path 843" d="M19.635-14.658H18.249L14.574-1.638h-.042l-3.7-13.02H9.093L5.334-1.638H5.292L1.68-14.658H.189L4.389,0H6.132l3.78-13.02h.042L13.671,0h1.722ZM21.483,0h1.323V-5.733c0-1.869.819-4.1,3.171-4.1,2.184,0,2.541,1.6,2.541,3.444V0h1.323V-6.405c0-2.646-.777-4.557-3.654-4.557A3.633,3.633,0,0,0,22.848-8.9h-.042V-15.75H21.483ZM39.312,0h1.3a15.224,15.224,0,0,1-.1-2.247V-6.972c0-2.793-1.113-3.99-3.759-3.99a8.437,8.437,0,0,0-3.15.735v1.281a5.687,5.687,0,0,1,3.15-.882c1.785,0,2.436.924,2.436,2.751v.546h-.252c-2.772,0-6.594.168-6.594,3.759,0,.966.483,3.024,3.528,3.024a3.769,3.769,0,0,0,3.4-1.974h.042Zm-.126-4.746c0,1.155-.063,3.864-3.171,3.864-1.218,0-2.226-.525-2.226-1.932,0-2.352,2.73-2.583,5.019-2.583h.378Zm9.093-5.964H45.843v-3.045l-1.323.462v2.583h-2.1v1.134h2.1v6.258c0,1.953.084,3.57,2.436,3.57a4.831,4.831,0,0,0,1.617-.294l-.084-1.092a3.065,3.065,0,0,1-1.218.252c-1.071,0-1.428-.8-1.428-1.764v-6.93h2.436Zm16.695-5.04H63.651V-8.9h-.042a3.609,3.609,0,0,0-3.339-2.058c-3.15,0-4.41,2.352-4.41,5.607,0,3.171,1.47,5.607,4.41,5.607A3.432,3.432,0,0,0,63.609-1.7h.042V0h1.323Zm-7.665,10.4c0-2.079.651-4.473,3.171-4.473,2.352,0,3.171,2.52,3.171,4.473S62.832-.882,60.48-.882C57.96-.882,57.309-3.276,57.309-5.355Zm10.038,0c0,2.919,1.533,5.607,5,5.607s5-2.688,5-5.607-1.533-5.607-5-5.607S67.347-8.274,67.347-5.355Zm1.449,0c0-2.478,1.239-4.473,3.549-4.473s3.549,1.995,3.549,4.473S74.655-.882,72.345-.882,68.8-2.877,68.8-5.355ZM85.659-10.71H84.21L88.011.126l-.273.945c-.42,1.386-.8,2.331-1.932,2.331a2.7,2.7,0,0,1-.987-.168l-.126,1.134a6.33,6.33,0,0,0,1.428.168c1.491,0,2.247-1.47,2.751-2.94L93.156-10.71H91.77L88.683-1.785h-.021Zm8.526,5.355c0,2.919,1.533,5.607,5,5.607s5-2.688,5-5.607-1.533-5.607-5-5.607S94.185-8.274,94.185-5.355Zm1.449,0c0-2.478,1.239-4.473,3.549-4.473s3.549,1.995,3.549,4.473S101.493-.882,99.183-.882,95.634-2.877,95.634-5.355Zm19.4-5.355h-1.323v5.922c0,1.785-.756,3.906-3.171,3.906C108.717-.882,108-2.184,108-4.2v-6.51H106.68v6.846c0,2.352,1.008,4.116,3.654,4.116A3.4,3.4,0,0,0,113.8-1.911h.042V0h1.281c-.084-.861-.084-1.7-.084-2.52Zm23.688,0H137.4l-2.961,9.261H134.4l-2.835-9.261h-1.6l-2.982,9.261h-.042l-2.814-9.261h-1.449L126.126,0h1.6l2.919-9.261h.042L133.6,0h1.6ZM146.685,0h1.3a15.224,15.224,0,0,1-.1-2.247V-6.972c0-2.793-1.113-3.99-3.759-3.99a8.437,8.437,0,0,0-3.15.735v1.281a5.687,5.687,0,0,1,3.15-.882c1.785,0,2.436.924,2.436,2.751v.546h-.252c-2.772,0-6.594.168-6.594,3.759,0,.966.483,3.024,3.528,3.024a3.769,3.769,0,0,0,3.4-1.974h.042Zm-.126-4.746c0,1.155-.063,3.864-3.171,3.864-1.218,0-2.226-.525-2.226-1.932,0-2.352,2.73-2.583,5.019-2.583h.378ZM151.032,0h1.323V-5.922c0-1.785.756-3.906,3.171-3.906,1.827,0,2.541,1.3,2.541,3.318V0h1.323V-6.846c0-2.352-1.008-4.116-3.654-4.116A3.4,3.4,0,0,0,152.271-8.8h-.042V-10.71h-1.281c.084.861.084,1.7.084,2.52Zm16.3-10.71h-2.436v-3.045l-1.323.462v2.583h-2.1v1.134h2.1v6.258c0,1.953.084,3.57,2.436,3.57a4.831,4.831,0,0,0,1.617-.294l-.084-1.092a3.065,3.065,0,0,1-1.218.252c-1.071,0-1.428-.8-1.428-1.764v-6.93h2.436ZM6.279,18.29H3.843V15.245l-1.323.462V18.29H.42v1.134h2.1v6.258c0,1.953.084,3.57,2.436,3.57a4.831,4.831,0,0,0,1.617-.294l-.084-1.092a3.065,3.065,0,0,1-1.218.252c-1.071,0-1.428-.8-1.428-1.764v-6.93H6.279Zm1.554,5.355c0,2.919,1.533,5.607,5,5.607s5-2.688,5-5.607-1.533-5.607-5-5.607S7.833,20.726,7.833,23.645Zm1.449,0c0-2.478,1.239-4.473,3.549-4.473s3.549,1.995,3.549,4.473-1.239,4.473-3.549,4.473S9.282,26.123,9.282,23.645ZM32.319,29h1.3a15.223,15.223,0,0,1-.1-2.247V22.028c0-2.793-1.113-3.99-3.759-3.99a8.437,8.437,0,0,0-3.15.735v1.281a5.687,5.687,0,0,1,3.15-.882c1.785,0,2.436.924,2.436,2.751v.546h-.252c-2.772,0-6.594.168-6.594,3.759,0,.966.483,3.024,3.528,3.024a3.769,3.769,0,0,0,3.4-1.974h.042Zm-.126-4.746c0,1.155-.063,3.864-3.171,3.864-1.218,0-2.226-.525-2.226-1.932,0-2.352,2.73-2.583,5.019-2.583h.378Zm11.55-5.8a8.006,8.006,0,0,0-2.583-.42c-3.171,0-5.292,2.31-5.292,5.607,0,2.982,1.68,5.607,5.124,5.607a7.935,7.935,0,0,0,2.751-.378l-.126-1.239a6.874,6.874,0,0,1-2.415.483c-2.415,0-3.885-2.037-3.885-4.473,0-2.6,1.449-4.473,4.032-4.473a6.079,6.079,0,0,1,2.289.546Zm9.324,0a8.006,8.006,0,0,0-2.583-.42c-3.171,0-5.292,2.31-5.292,5.607,0,2.982,1.68,5.607,5.124,5.607a7.935,7.935,0,0,0,2.751-.378l-.126-1.239a6.874,6.874,0,0,1-2.415.483c-2.415,0-3.885-2.037-3.885-4.473,0-2.6,1.449-4.473,4.032-4.473a6.079,6.079,0,0,1,2.289.546Zm1.428,5.187c0,2.919,1.533,5.607,5,5.607s5-2.688,5-5.607-1.533-5.607-5-5.607S54.495,20.726,54.495,23.645Zm1.449,0c0-2.478,1.239-4.473,3.549-4.473s3.549,1.995,3.549,4.473-1.239,4.473-3.549,4.473S55.944,26.123,55.944,23.645ZM81.249,29V21.629a3.265,3.265,0,0,0-3.381-3.591,3.6,3.6,0,0,0-3.423,2.268H74.4a2.7,2.7,0,0,0-2.835-2.268,3.365,3.365,0,0,0-3.339,2.079l-.042-.021V18.29H66.906c.084.861.084,1.7.084,2.52V29h1.323V23.078c0-2.667,1.428-3.906,2.877-3.906,1.7,0,2.268,1.2,2.268,2.709V29h1.323V23.078c0-2.667,1.428-3.906,2.877-3.906,1.7,0,2.268,1.2,2.268,2.709V29Zm3.108,4.41H85.68V27.173h.042a3.318,3.318,0,0,0,3.339,2.079c2.94,0,4.41-2.436,4.41-5.607,0-3.255-1.26-5.607-4.41-5.607a3.7,3.7,0,0,0-3.423,2.2H85.6l.084-1.953H84.357Zm7.665-9.765c0,2.079-.651,4.473-3.171,4.473-2.352,0-3.171-2.52-3.171-4.473s.819-4.473,3.171-4.473C91.371,19.172,92.022,21.566,92.022,23.645ZM96.159,29h1.323V13.25H96.159Zm4.662,0h1.323V18.29h-1.323Zm1.323-15.33h-1.323v1.764h1.323Zm2.394,15.078a8.065,8.065,0,0,0,3,.5c1.617,0,3.738-.777,3.738-3.045,0-3.507-5.271-3.255-5.271-5.25,0-1.365.945-1.785,2.31-1.785a6.25,6.25,0,0,1,2.373.5l.126-1.155a8.441,8.441,0,0,0-2.646-.483c-1.764,0-3.486.8-3.486,2.919,0,3.108,5.145,2.709,5.145,5.25,0,1.218-1.113,1.911-2.373,1.911a6.3,6.3,0,0,1-2.793-.672Zm9.114.252h1.323V23.267c0-1.869.819-4.095,3.171-4.095,2.184,0,2.541,1.6,2.541,3.444V29h1.323V22.595c0-2.646-.777-4.557-3.654-4.557a3.633,3.633,0,0,0-3.339,2.058h-.042V13.25h-1.323Zm17.514,0h1.323V18.29h-1.323Zm1.323-15.33h-1.323v1.764h1.323ZM135.828,29h1.323V23.078c0-1.785.756-3.906,3.171-3.906,1.827,0,2.541,1.3,2.541,3.318V29h1.323V22.154c0-2.352-1.008-4.116-3.654-4.116a3.4,3.4,0,0,0-3.465,2.163h-.042V18.29h-1.281c.084.861.084,1.7.084,2.52ZM1.638,47.29H.189l3.8,10.836-.273.945c-.42,1.386-.8,2.331-1.932,2.331A2.7,2.7,0,0,1,.8,61.234L.672,62.368a6.33,6.33,0,0,0,1.428.168c1.491,0,2.247-1.47,2.751-2.94L9.135,47.29H7.749L4.662,56.215H4.641Zm8.526,5.355c0,2.919,1.533,5.607,5,5.607s5-2.688,5-5.607-1.533-5.607-5-5.607S10.164,49.726,10.164,52.645Zm1.449,0c0-2.478,1.239-4.473,3.549-4.473s3.549,1.995,3.549,4.473-1.239,4.473-3.549,4.473S11.613,55.123,11.613,52.645Zm19.4-5.355H29.694v5.922c0,1.785-.756,3.906-3.171,3.906-1.827,0-2.541-1.3-2.541-3.318V47.29H22.659v6.846c0,2.352,1.008,4.116,3.654,4.116a3.4,3.4,0,0,0,3.465-2.163h.042V58H31.1c-.084-.861-.084-1.7-.084-2.52ZM34.335,58h1.323V52.708c0-1.932.567-4.284,2.667-4.284a3.471,3.471,0,0,1,.966.126V47.164a3.929,3.929,0,0,0-.924-.126,3.176,3.176,0,0,0-2.751,2.31h-.042V47.29H34.251a19.249,19.249,0,0,1,.084,2.394Zm12.684,0h2.814V42.25H47.019Zm5.838,0h2.814V47.185H52.857Zm0-12.789h2.814V42.523H52.857ZM59.661,58h2.814V49.243h2.457V47.185H62.475V45.841c0-.84.294-1.659,1.239-1.659a2.184,2.184,0,0,1,1.218.378l.231-2.331A9.928,9.928,0,0,0,63.105,42c-2.226,0-3.444,1.512-3.444,3.675v1.512H57.582v2.058h2.079ZM68.8,51.532a2.45,2.45,0,0,1,2.5-2.541c1.575,0,2.205,1.176,2.289,2.541Zm6.678,3.57a7.3,7.3,0,0,1-3.591,1.092,2.827,2.827,0,0,1-3.087-2.73h7.476c0-3.78-1.134-6.531-5.145-6.531-3.36,0-5.019,2.583-5.019,5.712,0,3.549,2.079,5.607,5.649,5.607a7.429,7.429,0,0,0,3.717-.861ZM78.9,44.938a9.029,9.029,0,0,1,2.94-.588,2.443,2.443,0,0,1,2.646,2.5c0,3.339-3.465,3.507-3.465,7.329v.273h1.323v-.315c0-3.36,3.591-3.822,3.591-7.287,0-2.6-1.869-3.759-4.032-3.759a10.92,10.92,0,0,0-3.066.525ZM80.85,58h1.7V56.236h-1.7Z" transform="translate(31.312 42.289)"/>
  </g>
</svg>
