<svg xmlns="http://www.w3.org/2000/svg" width="227.464" height="162.894" viewBox="0 0 227.464 162.894">
  <g id="Question2" transform="translate(0.75 0.75)">
    <g id="Group_176" data-name="Group 176" transform="translate(0 0)">
      <path id="Path_217" data-name="Path 217" d="M79.624,50.5l-5.333,4.444L18.3,98.27V58.054" transform="translate(21.472 60.816)" fill="#fff"/>
      <path id="Path_218" data-name="Path 218" d="M79.624,50.5l-5.333,4.444L18.3,98.27V58.054" transform="translate(21.472 60.816)" fill="#fff" stroke="#e6d0a8" stroke-miterlimit="10" stroke-width="3"/>
      <path id="Path_219" data-name="Path 219" d="M29.507,121.492H20.175C8.843,121.492.4,114.6.4,105.272V.4H207.923c11.332,0,18.442,7.11,18.442,16.664V121.492H109.494" transform="translate(-0.4 -0.4)" fill="#fff"/>
      <path id="Path_220" data-name="Path 220" d="M29.507,121.492H20.175C8.843,121.492.4,114.6.4,105.272V.4H207.923c11.332,0,18.442,7.11,18.442,16.664V121.492H109.494" transform="translate(-0.4 -0.4)" fill="#fff" stroke="#e6d0a8" stroke-miterlimit="10" stroke-width="1.5"/>
    </g>
    <path id="Path_844" data-name="Path 844" d="M21.505-16.054H19.987L15.962-1.794h-.046l-4.048-14.26H9.959L5.842-1.794H5.8L1.84-16.054H.207L4.807,0H6.716l4.14-14.26H10.9L14.973,0h1.886ZM23.529,0h1.449V-6.279c0-2.047.9-4.485,3.473-4.485,2.392,0,2.783,1.748,2.783,3.772V0h1.449V-7.015c0-2.9-.851-4.991-4-4.991a3.979,3.979,0,0,0-3.657,2.254h-.046v-7.5H23.529ZM43.056,0h1.426a16.673,16.673,0,0,1-.115-2.461V-7.636c0-3.059-1.219-4.37-4.117-4.37a9.241,9.241,0,0,0-3.45.805v1.4a6.229,6.229,0,0,1,3.45-.966c1.955,0,2.668,1.012,2.668,3.013v.6h-.276c-3.036,0-7.222.184-7.222,4.117,0,1.058.529,3.312,3.864,3.312A4.128,4.128,0,0,0,43.01-1.886h.046Zm-.138-5.2c0,1.265-.069,4.232-3.473,4.232-1.334,0-2.438-.575-2.438-2.116,0-2.576,2.99-2.829,5.5-2.829h.414Zm9.959-6.532H50.209v-3.335l-1.449.506v2.829h-2.3v1.242h2.3v6.854c0,2.139.092,3.91,2.668,3.91A5.291,5.291,0,0,0,53.2-.046l-.092-1.2a3.357,3.357,0,0,1-1.334.276c-1.173,0-1.564-.874-1.564-1.932v-7.59h2.668ZM68.609,0h1.426a16.672,16.672,0,0,1-.115-2.461V-7.636c0-3.059-1.219-4.37-4.117-4.37a9.241,9.241,0,0,0-3.45.805v1.4a6.229,6.229,0,0,1,3.45-.966c1.955,0,2.668,1.012,2.668,3.013v.6h-.276c-3.036,0-7.222.184-7.222,4.117,0,1.058.529,3.312,3.864,3.312a4.128,4.128,0,0,0,3.726-2.162h.046Zm-.138-5.2C68.471-3.933,68.4-.966,65-.966c-1.334,0-2.438-.575-2.438-2.116,0-2.576,2.99-2.829,5.5-2.829h.414ZM73.37,0h1.449V-5.8c0-2.116.621-4.692,2.921-4.692a3.8,3.8,0,0,1,1.058.138v-1.518a4.3,4.3,0,0,0-1.012-.138,3.479,3.479,0,0,0-3.013,2.53h-.046V-11.73H73.278a21.082,21.082,0,0,1,.092,2.622ZM88.481-1.84a7.545,7.545,0,0,1-3.289.874c-2.53,0-3.864-2-3.864-4.485h8.027v-.736c0-3.151-1.357-5.819-4.669-5.819-2.967,0-4.945,2.553-4.945,6.141,0,3.519,1.449,6.141,5.336,6.141a9.613,9.613,0,0,0,3.4-.644ZM81.328-6.693c0-1.932,1.311-4.071,3.45-4.071,2.162,0,2.99,2.024,2.99,4.071ZM98.486-11.73H96.9L101.062.138l-.3,1.035c-.46,1.518-.874,2.553-2.116,2.553a2.959,2.959,0,0,1-1.081-.184l-.138,1.242a6.933,6.933,0,0,0,1.564.184c1.633,0,2.461-1.61,3.013-3.22L106.7-11.73h-1.518L101.8-1.955h-.023Zm9.338,5.865c0,3.2,1.679,6.141,5.474,6.141s5.474-2.944,5.474-6.141-1.679-6.141-5.474-6.141S107.824-9.062,107.824-5.865Zm1.587,0c0-2.714,1.357-4.9,3.887-4.9s3.887,2.185,3.887,4.9-1.357,4.9-3.887,4.9S109.411-3.151,109.411-5.865Zm21.252-5.865h-1.449v6.486c0,1.955-.828,4.278-3.473,4.278-2,0-2.783-1.426-2.783-3.634v-7.13h-1.449v7.5c0,2.576,1.1,4.508,4,4.508a3.72,3.72,0,0,0,3.795-2.369h.046V0h1.4c-.092-.943-.092-1.863-.092-2.76ZM134.3,0h1.449V-5.8c0-2.116.621-4.692,2.921-4.692a3.8,3.8,0,0,1,1.058.138v-1.518a4.3,4.3,0,0,0-1.012-.138,3.479,3.479,0,0,0-3.013,2.53h-.046V-11.73h-1.449a21.083,21.083,0,0,1,.092,2.622ZM17.434,29V20.927c0-2.277-1.334-3.933-3.7-3.933a3.939,3.939,0,0,0-3.749,2.484H9.936a2.954,2.954,0,0,0-3.1-2.484,3.685,3.685,0,0,0-3.657,2.277l-.046-.023V17.27h-1.4c.092.943.092,1.863.092,2.76V29H3.266V22.514c0-2.921,1.564-4.278,3.151-4.278C8.28,18.236,8.9,19.547,8.9,21.2V29H10.35V22.514c0-2.921,1.564-4.278,3.151-4.278,1.863,0,2.484,1.311,2.484,2.967V29Zm10.281,0h1.426a16.673,16.673,0,0,1-.115-2.461V21.364c0-3.059-1.219-4.37-4.117-4.37a9.241,9.241,0,0,0-3.45.805v1.4a6.229,6.229,0,0,1,3.45-.966c1.955,0,2.668,1.012,2.668,3.013v.6H27.3c-3.036,0-7.222.184-7.222,4.117,0,1.058.529,3.312,3.864,3.312a4.128,4.128,0,0,0,3.726-2.162h.046Zm-.138-5.2c0,1.265-.069,4.232-3.473,4.232-1.334,0-2.438-.575-2.438-2.116,0-2.576,2.99-2.829,5.5-2.829h.414Zm4.9,5.2h1.449V17.27H32.476Zm1.449-16.79H32.476v1.932h1.449ZM37.582,29h1.449V22.514c0-1.955.828-4.278,3.473-4.278,2,0,2.783,1.426,2.783,3.634V29h1.449V21.5c0-2.576-1.1-4.508-4-4.508a3.72,3.72,0,0,0-3.8,2.369h-.046V17.27h-1.4c.092.943.092,1.863.092,2.76Zm26.91-11.73a10.03,10.03,0,0,0-2.99-.391c-3.7,0-5.727,2.714-5.727,6.141,0,3.611,1.955,6.256,5.842,6.256a10.047,10.047,0,0,0,3.082-.391l-.138-2.553a6.532,6.532,0,0,1-2.369.552c-2.162,0-3.2-1.679-3.2-3.864,0-2.231,1.219-3.749,3.128-3.749a4.652,4.652,0,0,1,2.093.437Zm1.5,5.888a6.2,6.2,0,0,0,12.4,0,6.2,6.2,0,1,0-12.4,0Zm3.22-.368c0-1.771.966-3.519,2.967-3.519,2.024,0,2.99,1.7,2.99,3.519,0,1.978-.621,4.094-2.99,4.094C69.828,26.884,69.207,24.745,69.207,22.79ZM80.8,29h3.082V23.2c0-1.518.483-3.933,2.714-3.933,1.978,0,2,1.955,2,3.4V29h3.082V21.525c0-2.668-1.219-4.646-4.025-4.646a4.424,4.424,0,0,0-3.887,1.886H83.72v-1.61H80.8ZM102.81,17.27a10.03,10.03,0,0,0-2.99-.391c-3.7,0-5.727,2.714-5.727,6.141,0,3.611,1.955,6.256,5.842,6.256a10.047,10.047,0,0,0,3.082-.391l-.138-2.553a6.532,6.532,0,0,1-2.369.552c-2.162,0-3.2-1.679-3.2-3.864,0-2.231,1.219-3.749,3.128-3.749a4.652,4.652,0,0,1,2.093.437Zm4.439,4.646a2.684,2.684,0,0,1,2.737-2.783c1.725,0,2.415,1.288,2.507,2.783Zm7.314,3.91a7.991,7.991,0,0,1-3.933,1.2,3.1,3.1,0,0,1-3.381-2.99h8.188c0-4.14-1.242-7.153-5.635-7.153-3.68,0-5.5,2.829-5.5,6.256,0,3.887,2.277,6.141,6.187,6.141a8.136,8.136,0,0,0,4.071-.943ZM117.921,29H121V24.653c0-1.7,0-4.83,2.507-4.83a3.14,3.14,0,0,1,1.38.253v-3.1a3.364,3.364,0,0,0-.943-.092,3.628,3.628,0,0,0-3.243,2.967h-.046V17.155h-2.737Zm9.292,0H130.3V23.2c0-1.518.483-3.933,2.714-3.933,1.978,0,2,1.955,2,3.4V29h3.082V21.525c0-2.668-1.219-4.646-4.025-4.646a4.424,4.424,0,0,0-3.887,1.886h-.046v-1.61h-2.921Zm21.3-11.684a14.192,14.192,0,0,0-3.358-.437c-2.415,0-4.646,1.127-4.646,3.68,0,4.278,5.359,2.691,5.359,5.014,0,1.15-1.242,1.449-2.024,1.449a6.769,6.769,0,0,1-3.036-.782l-.184,2.53a13.807,13.807,0,0,0,3.5.506c2.507,0,4.968-1.1,4.968-3.864,0-4.278-5.359-3.082-5.359-4.968,0-1.012.989-1.311,1.817-1.311a7.558,7.558,0,0,1,2.76.506Zm3.427-2.622a9.889,9.889,0,0,1,3.22-.644,2.676,2.676,0,0,1,2.9,2.737c0,3.657-3.795,3.841-3.795,8.027v.3h1.449v-.345c0-3.68,3.933-4.186,3.933-7.981,0-2.852-2.047-4.117-4.416-4.117a11.96,11.96,0,0,0-3.358.575ZM154.077,29h1.863V27.068h-1.863Z" transform="translate(26.69 52.208)"/>
  </g>
</svg>
