<svg xmlns="http://www.w3.org/2000/svg">
<defs>
<font horiz-adv-x="498" id="9cf390ea-aabe-4d32-8126-d627ce744f4e">
<font-face font-family="" panose-1="2 11 3 3 3 5 4 9 2 4" ascent="939" descent="-250" units-per-em="1000" alphabetic="0">
</font-face>
<missing-glyph horiz-adv-x="0" />

<glyph unicode="&#xA;" />
<glyph unicode="&#xD;" horiz-adv-x="0" />
<glyph unicode=" " horiz-adv-x="278" />
<glyph unicode="!" horiz-adv-x="389" d="M119 84H201L184 0H102L119 84ZM250 698H334L209 169H150L250 698Z"  />
<glyph unicode="&quot;" horiz-adv-x="444" d="M314 698H377V480H314V698ZM179 698H242V480H179V698Z"  />
<glyph unicode="#" horiz-adv-x="556" d="M378 425H248L227 273H357L378 425ZM158 219H46L54 273H165L187 425H72L80 479H194L225 698H286L255 479H385L416 698H477L446 479H550L542 425H439L418 273H522L514 219H410L379 0H318L349 219H219L188 0H127L158 219Z"  />
<glyph unicode="$" horiz-adv-x="556" d="M418 786L401 710Q480 707 545 679L524 616Q461 648 388 650L331 394Q356 378 381 361T427 321T460 270T473 206Q473 156 454 117T402 51T327 9T240 -10L222 -90H174L192 -12Q134 -9 98 3T40 26L61 92Q90 72 128 61T205 48L273 352Q249 367 227 383T186 419T158 462T147 515Q147 562 163 597T208 655T274 692T353 708L370 786H418ZM254 52Q283 56 310 66T358 94T391 137T404 197Q404 241 378 270T315 324L254 52ZM339 646Q315 641 293 632T254 607T226 570T216 520Q216 488 236 465T289 421L339 646Z"  />
<glyph unicode="%" horiz-adv-x="944" d="M684 720H740L295 -22H239L684 720ZM232 334Q198 334 172 345T127 377T99 425T89 486Q89 525 102 564T141 634T201 685T278 705Q311 705 338 695T384 666T414 621T425 561Q425 518 412 477T375 405T314 354T232 334ZM238 388Q271 388 294 405T333 448T355 504T362 561Q362 578 357 594T341 623T314 643T278 651Q243 651 219 634T180 591T159 533T152 474Q152 436 174 412T238 388ZM694 -7Q660 -7 634 4T589 36T561 84T551 145Q551 184 564 223T603 293T663 344T740 364Q773 364 800 354T846 325T876 280T887 220Q887 177 874 136T837 64T776 13T694 -7ZM700 47Q733 47 756 64T795 107T817 163T824 220Q824 237 819 253T803 282T776 302T740 310Q705 310 681 293T642 250T621 192T614 133Q614 95 636 71T700 47Z"  />
<glyph unicode="&amp;" horiz-adv-x="667" d="M481 563Q481 611 450 633T369 656Q347 656 326 650T287 630T260 598T249 553Q249 525 265 491T313 413Q340 422 369 434T423 465T464 507T481 563ZM282 356Q247 345 214 330T154 293T112 241T96 170Q96 138 109 115T143 75T190 50T244 42Q299 42 348 65T438 127L282 356ZM466 79Q412 26 357 7T244 -12Q196 -12 157 0T88 36T43 94T27 170Q27 218 46 255T96 321T168 368T252 398Q238 417 226 435T205 471T191 509T186 552Q186 594 202 624T246 673T306 701T374 710Q409 710 440 701T494 674T530 628T544 563Q544 523 526 493T478 439T412 399T341 371L481 171Q524 217 545 271T582 382H642Q627 310 595 244T512 122L592 0H517L466 79Z"  />
<glyph unicode="&apos;" horiz-adv-x="278" d="M166 698H229V480H166V698Z"  />
<glyph unicode="(" horiz-adv-x="278" d="M389 756Q337 695 291 632T209 500T152 357T131 200Q131 112 149 27T199 -140H154Q119 -57 94 36T68 220Q68 301 91 372T151 509T235 635T330 756H389Z"  />
<glyph unicode=")" horiz-adv-x="278" d="M-71 -140Q-19 -79 27 -16T109 116T166 259T187 416Q187 504 169 589T119 756H164Q199 673 224 580T250 396Q250 315 227 244T167 107T83 -19T-12 -140H-71Z"  />
<glyph unicode="*" horiz-adv-x="556" d="M278 501L130 543L149 601L293 545L287 698H344L338 545L486 601L503 543L353 501L442 379L396 344L315 473L225 344L179 379L278 501Z"  />
<glyph unicode="+" horiz-adv-x="600" d="M61 288H280V507H349V288H568V219H349V0H280V219H61V288Z"  />
<glyph unicode="&#x2c;" horiz-adv-x="278" d="M65 84H147L24 -134H-37L65 84Z"  />
<glyph unicode="-" horiz-adv-x="333" d="M50 304H305L294 235H39L50 304Z"  />
<glyph unicode="." horiz-adv-x="278" d="M65 84H147L130 0H48L65 84Z"  />
<glyph unicode="/" horiz-adv-x="278" d="M265 710H334L61 -12H-6L265 710Z"  />
<glyph unicode="0" horiz-adv-x="556" d="M123 226Q123 198 127 168T144 112T179 70T238 53Q280 53 314 77T375 139T421 224T454 318T473 405T479 472Q479 500 475 530T457 586T420 628T358 645Q318 645 285 621T225 559T180 474T148 380T129 292T123 226ZM54 225Q54 261 61 310T84 413T124 518T183 612T260 679T359 705Q411 705 447 687T505 636T538 562T548 473Q548 437 541 388T518 285T478 180T419 86T341 19T243 -7Q191 -7 155 11T97 62T64 136T54 225Z"  />
<glyph unicode="1" horiz-adv-x="556" d="M341 620L208 525L176 572L372 698H424L277 0H211L341 620Z"  />
<glyph unicode="2" horiz-adv-x="556" d="M17 54L203 216Q235 244 277 281T358 361T422 447T448 535Q448 586 414 615T326 645Q273 645 228 628T150 585L156 658Q190 678 235 691T326 705Q417 705 467 661T517 541Q517 500 502 462T462 390T409 326T353 269L113 60H441L427 0H2L17 54Z"  />
<glyph unicode="3" horiz-adv-x="556" d="M174 398H241Q280 398 318 406T385 430T433 471T451 528Q451 560 438 582T405 619T360 639T309 645Q281 645 259 643T217 635T179 623T141 605L146 672Q183 689 225 697T309 705Q349 705 387 696T454 666T502 613T520 534Q520 498 505 469T465 418T407 382T339 364V362Q398 350 426 309T454 216Q454 159 429 117T363 48T272 7T171 -7Q128 -7 87 -1T-1 24L15 84Q29 78 44 73T77 63T118 56T171 53Q215 53 254 63T322 95T368 148T385 222Q385 250 371 272T335 308T283 330T223 338H159L174 398Z"  />
<glyph unicode="4" horiz-adv-x="556" d="M352 221L442 629H440L87 221H352ZM338 161H1L16 227L432 698H458H521L418 221H521L509 161H405L370 0H304L338 161Z"  />
<glyph unicode="5" horiz-adv-x="556" d="M197 698H261H564L552 638H247L196 417Q218 422 240 425T285 429Q330 429 367 417T431 381T473 324T488 247Q488 187 465 140T402 60T313 10T211 -7Q158 -7 118 0T39 22L52 88Q79 74 115 64T195 53Q243 53 284 66T355 105T402 165T419 243Q419 274 406 297T372 337T321 361T258 369Q222 369 185 362Q151 356 116 345L197 698Z"  />
<glyph unicode="6" horiz-adv-x="556" d="M279 53Q315 53 345 69T398 112T432 172T445 239Q445 267 436 293T408 338T359 369T289 381Q256 381 227 367T177 330T142 276T129 210Q129 175 140 146T170 95T218 62T279 53ZM538 610Q512 624 476 634T398 645Q342 645 297 620T219 554T164 463T137 363H139Q177 400 217 420T319 441Q362 441 398 426T459 385T499 324T514 247Q514 195 496 149T446 68T370 13T275 -7Q212 -7 171 14T105 72T70 155T60 253Q60 334 81 414T144 559T251 664T402 705Q444 705 484 696T556 671L538 610Z"  />
<glyph unicode="7" horiz-adv-x="556" d="M563 644L150 0H71L485 638H138L150 698H573L563 644Z"  />
<glyph unicode="8" horiz-adv-x="556" d="M351 705Q390 705 426 696T491 668T535 617T552 540Q552 503 534 474T488 423T425 387T357 366V364Q388 353 414 338T460 301T491 253T502 192Q502 142 483 105T431 42T355 5T262 -7Q215 -7 174 4T103 39T55 98T37 182Q37 221 53 252T98 307T161 347T235 372V374Q215 386 197 401T166 436T144 476T135 521Q135 566 153 600T202 658T272 693T351 705ZM345 651Q317 651 292 643T247 618T216 577T204 521Q204 501 212 482T233 447T264 416T300 390Q327 399 359 411T418 442T464 484T483 540Q483 570 471 591T439 625T394 645T345 651ZM262 47Q294 47 324 57T379 85T418 131T433 191Q433 227 418 252T380 294T333 324T289 346Q275 344 245 334T184 303T130 254T106 186Q106 152 119 126T154 83T204 56T262 47Z"  />
<glyph unicode="9" horiz-adv-x="556" d="M319 645Q283 645 253 629T200 586T166 526T153 459Q153 430 162 405T190 360T239 329T309 317Q342 317 371 331T421 368T456 422T469 488Q469 522 458 552T428 603T380 636T319 645ZM60 88Q86 74 122 64T200 53Q255 53 300 78T379 144T434 235T461 335H459Q421 297 381 277T279 257Q236 257 200 272T139 313T99 374T84 451Q84 503 102 549T152 630T228 685T323 705Q386 705 427 684T493 626T528 543T538 445Q538 364 517 283T454 138T347 33T196 -7Q154 -7 114 2T42 27L60 88Z"  />
<glyph unicode=":" horiz-adv-x="278" d="M65 84H147L130 0H48L65 84ZM154 510H236L219 426H137L154 510Z"  />
<glyph unicode=";" horiz-adv-x="278" d="M154 510H236L219 426H137L154 510ZM65 84H147L24 -134H-37L65 84Z"  />
<glyph unicode="&lt;" horiz-adv-x="600" d="M568 448L138 253L568 58V-8L61 222V284L568 514V448Z"  />
<glyph unicode="=" horiz-adv-x="600" d="M61 187H568V118H61V187ZM61 388H568V319H61V388Z"  />
<glyph unicode="&gt;" horiz-adv-x="600" d="M62 58L493 253L62 448V514L569 284V222L62 -8V58Z"  />
<glyph unicode="?" horiz-adv-x="500" d="M121 84H203L186 0H104L121 84ZM155 688Q185 696 215 703T278 710Q315 710 349 701T410 672T452 622T468 549Q468 519 458 494T432 447T396 407T354 370Q335 354 312 336T268 296T231 251T210 201L203 169H145L153 208Q159 238 174 264T209 314T253 358T300 398Q319 413 337 428T368 462T390 501T399 549Q399 577 387 596T355 627T311 644T265 650Q238 650 204 643T144 624L155 688Z"  />
<glyph unicode="@" horiz-adv-x="800" d="M531 266Q521 238 521 217Q521 208 526 201T543 194Q571 194 597 211T644 257T677 325T690 408Q690 466 666 511T602 587T510 634T401 650Q338 650 284 628T191 565T129 470T106 350Q106 284 128 229T190 134T284 71T401 48Q486 48 554 78T665 159H726Q679 78 594 33T401 -12Q311 -12 244 19T131 101T63 216T40 349Q40 417 62 482T130 597T243 679T401 710Q467 710 530 691T644 633T725 539T756 408Q756 344 733 293T675 207T601 153T530 134Q463 134 451 195H449Q440 184 429 173T404 154T370 140T326 134Q296 134 272 146T229 178T201 226T191 284Q191 333 207 381T254 468T327 531T422 555Q457 555 486 537T532 478L553 538H616L531 266ZM266 290Q268 244 287 219T338 194Q374 194 404 215T456 268T490 337T502 405Q502 431 495 448T476 476T450 491T422 495Q398 495 371 480T320 438T282 373T266 290Z"  />
<glyph unicode="A" horiz-adv-x="667" d="M391 698H473L609 0H539L504 187H147L32 0H-42L391 698ZM420 629L184 247H493L420 629Z"  />
<glyph unicode="B" horiz-adv-x="556" d="M185 393H274Q308 393 342 401T404 426T449 472T467 541Q467 574 455 593T422 623T371 635T309 638H238L185 393ZM113 60H201Q246 60 285 69T354 98T401 148T418 220Q418 249 409 270T382 306T342 326T292 333H173L113 60ZM182 698H251H308Q350 698 391 693T464 672T516 625T536 544Q536 506 522 475T485 421T431 383T366 365V363Q426 355 456 318T487 220Q487 170 466 129T408 60T319 16T208 0H101H32L182 698Z"  />
<glyph unicode="C" horiz-adv-x="611" d="M653 616Q615 636 573 643T485 650Q409 650 346 623T238 547T168 434T143 293Q143 242 162 198T215 120T295 67T397 48Q430 48 451 50T489 55T518 63T546 71L538 10Q517 4 487 -4T402 -12Q335 -12 276 9T171 70T100 166T74 294Q74 385 105 461T191 593T322 679T489 710Q546 710 589 702T677 674L653 616Z"  />
<glyph unicode="D" horiz-adv-x="667" d="M185 698H256H309Q379 698 441 684T549 638T621 551T648 418Q648 325 622 248T544 116T419 31T248 0H106H37L185 698ZM119 60H242Q321 60 383 84T489 154T556 266T579 418Q579 476 561 518T511 586T432 625T330 638H243L119 60Z"  />
<glyph unicode="E" horiz-adv-x="500" d="M181 698H253H525L514 638H237L186 389H447L436 329H174L118 60H405L395 0H102H37L181 698Z"  />
<glyph unicode="F" horiz-adv-x="444" d="M176 698H243H510L497 638H230L179 389H435L423 329H168L97 0H28L176 698Z"  />
<glyph unicode="G" horiz-adv-x="722" d="M682 610Q639 632 591 641T495 650Q420 650 356 625T246 555T174 446T148 305Q148 251 166 204T217 123T295 68T394 48Q449 48 481 58T530 77L579 318H412L426 378H593H663L601 78L590 23Q580 20 565 15T532 4T477 -6T399 -12Q326 -12 267 11T166 77T102 179T79 313Q79 401 111 474T198 599T327 681T487 710Q540 710 593 703T701 675L682 610Z"  />
<glyph unicode="H" horiz-adv-x="667" d="M185 698H253L188 389H545L611 698H679L529 0H461L532 329H175L105 0H37L185 698Z"  />
<glyph unicode="I" horiz-adv-x="222" d="M176 698H245L97 0H28L176 698Z"  />
<glyph unicode="J" horiz-adv-x="333" d="M-20 63Q-4 56 12 52T46 48Q85 48 109 67T148 116T171 179T185 242L281 698H350L248 230Q238 184 226 141T193 63T138 9T50 -12Q29 -12 5 -10T-35 0L-20 63Z"  />
<glyph unicode="K" horiz-adv-x="611" d="M196 698H264L199 394H201L569 698H669L258 367L554 0H468L189 349L117 0H47L196 698Z"  />
<glyph unicode="L" horiz-adv-x="444" d="M177 698H248L111 60H396L385 0H98H28L177 698Z"  />
<glyph unicode="M" horiz-adv-x="889" d="M185 698H249H281L409 84L797 698H839H904L756 0H688L823 623H821L423 0H366L235 623H233L101 0H37L185 698Z"  />
<glyph unicode="N" horiz-adv-x="667" d="M179 698H246H261L494 84H496L626 698H689L541 0H474H459L226 614H224L92 0H28L179 698Z"  />
<glyph unicode="O" horiz-adv-x="722" d="M136 279Q136 230 148 188T184 115T246 66T333 48Q403 48 458 82T553 169T612 288T633 419Q633 468 621 510T585 583T523 632T436 650Q366 650 311 616T216 529T157 410T136 279ZM67 273Q67 356 92 434T165 574T282 673T438 710Q502 710 551 690T634 632T685 542T702 425Q702 342 677 264T604 124T487 25T331 -12Q266 -12 217 8T135 66T84 156T67 273Z"  />
<glyph unicode="P" horiz-adv-x="500" d="M187 698H258H306Q355 698 397 692T472 666T522 613T541 523Q541 467 518 426T457 357T370 316T270 302H172L106 0H37L187 698ZM185 362H263Q303 362 340 370T407 398T454 447T472 523Q472 559 459 581T425 616T375 633T317 638H244L185 362Z"  />
<glyph unicode="Q" horiz-adv-x="722" d="M136 279Q136 230 148 188T184 115T246 66T333 48Q403 48 458 82T553 169T612 288T633 419Q633 468 621 510T585 583T523 632T436 650Q366 650 311 616T216 529T157 410T136 279ZM479 -132L376 -8Q357 -12 331 -12Q266 -12 217 8T135 66T84 156T67 273Q67 356 92 434T165 574T282 673T438 710Q502 710 551 690T634 632T685 542T702 425Q702 356 685 290T634 168T552 70T441 6L565 -132H479Z"  />
<glyph unicode="R" horiz-adv-x="556" d="M190 389H263Q298 389 334 395T401 418T450 463T470 533Q470 563 461 583T434 615T394 632T344 638H243L190 389ZM189 698H259H347Q389 699 424 692T484 666T524 618T539 542Q539 499 524 466T482 408T419 371T342 355V353Q364 349 377 341T397 321T409 296T417 268L483 0H415L354 259Q342 300 321 314T258 329H177L107 0H37L189 698Z"  />
<glyph unicode="S" horiz-adv-x="500" d="M498 616Q432 650 357 650Q328 650 299 643T245 621T206 580T190 520Q190 490 209 468T256 425T318 385T380 341T428 284T447 206Q447 153 425 112T366 44T284 2T190 -12Q121 -12 79 0T14 26L35 92Q66 71 106 60T184 48Q219 48 254 56T316 82T361 128T378 197Q378 233 359 259T312 308T250 350T188 393T140 445T121 515Q121 566 140 603T193 663T268 698T357 710Q447 710 519 679L498 616Z"  />
<glyph unicode="T" horiz-adv-x="500" d="M101 698H594L582 638H370L236 0H164L300 638H88L101 698Z"  />
<glyph unicode="U" horiz-adv-x="667" d="M594 266Q584 205 562 154T504 66T421 9T312 -12Q262 -12 220 2T147 44T99 113T82 208Q82 232 86 263T96 327T109 391T122 447L177 698H243L172 358Q169 343 166 324T159 285T153 246T151 211Q151 134 193 91T311 48Q356 48 391 63T452 104T495 166T522 243L623 698H687L594 266Z"  />
<glyph unicode="V" horiz-adv-x="611" d="M293 0H218L104 698H171L267 69H269L630 698H701L293 0Z"  />
<glyph unicode="W" horiz-adv-x="944" d="M104 698H171L220 78H222L528 698H611L651 78H653L963 698H1031L678 0H595L557 620H555L249 0H166L104 698Z"  />
<glyph unicode="X" horiz-adv-x="611" d="M293 367L124 698H199L341 411L601 698H685L377 365L556 0H480L330 316L44 0H-43L293 367Z"  />
<glyph unicode="Y" horiz-adv-x="611" d="M283 295L106 698H179L326 352L620 698H703L350 295L287 0H220L283 295Z"  />
<glyph unicode="Z" horiz-adv-x="500" d="M-19 61L470 638H115L128 698H565L552 637L64 60H442L429 0H-31L-19 61Z"  />
<glyph unicode="[" horiz-adv-x="278" d="M205 756H264H363L354 708H252L82 -92H182L173 -140H70H15L205 756Z"  />
<glyph unicode="\" horiz-adv-x="278" d="M334 -12H263L-6 710H65L334 -12Z"  />
<glyph unicode="]" horiz-adv-x="278" d="M116 -140H59H-42L-33 -92H69L239 708H139L148 756H249H306L116 -140Z"  />
<glyph unicode="^" horiz-adv-x="600" d="M278 698H342L560 265H490L309 629L131 265H60L278 698Z"  />
<glyph unicode="_" horiz-adv-x="500" d="M500 -75V-125H0V-75H500Z"  />
<glyph unicode="`" horiz-adv-x="222" d="M223 578H181L59 722H138L223 578Z"  />
<glyph unicode="a" horiz-adv-x="500" d="M84 132Q84 110 92 94T114 66T146 48T183 42Q227 42 259 60T314 108T350 176T369 255Q353 255 338 256T307 257Q275 257 236 253T164 237T107 199T84 132ZM409 121Q401 92 397 59T390 0H327Q329 20 331 39T337 75H335Q303 27 261 8T161 -12Q131 -12 105 -2T58 28T27 73T15 131Q15 187 43 222T114 277T209 304T308 311Q328 311 345 310T377 307Q380 329 380 358Q380 411 352 439T271 468Q226 468 186 453T120 424L127 488Q154 499 195 510T281 522Q364 522 406 479T449 356Q449 341 446 315T436 259L409 121Z"  />
<glyph unicode="b" horiz-adv-x="556" d="M329 468Q282 468 246 443T184 378T146 293T133 204Q133 171 139 142T161 91T201 55T263 42Q312 42 348 68T407 134T442 223T454 316Q454 348 447 375T425 423T386 456T329 468ZM181 442H183Q211 478 249 500T351 522Q395 522 427 506T481 461T512 395T523 316Q523 256 507 197T457 92T376 17T263 -12Q224 -12 197 -3T151 22T123 55T106 90H104Q102 74 95 51T82 0H17Q25 27 32 52T44 104L182 750H248L181 442Z"  />
<glyph unicode="c" horiz-adv-x="444" d="M449 445Q442 449 428 453T398 460T364 466T331 468Q277 468 235 450T165 398T123 321T108 226Q108 187 120 153T155 95T207 56T273 42Q302 42 329 50T381 66L373 3Q355 -3 326 -7T257 -12Q202 -12 161 9T93 63T53 138T39 221Q39 288 58 343T114 439T208 500T338 522Q354 522 372 521T408 516T441 510T467 502L449 445Z"  />
<glyph unicode="d" horiz-adv-x="556" d="M108 194Q108 162 115 135T137 87T176 54T233 42Q276 42 312 67T374 132T414 217T429 306Q429 340 421 369T397 421T357 455T299 468Q250 468 214 442T155 376T120 287T108 194ZM454 100Q440 36 437 0H372Q374 21 378 43T388 81H386Q358 39 318 14T212 -12Q166 -12 133 6T79 54T49 123T39 206Q39 259 56 315T105 417T185 492T294 522Q350 522 393 496T450 416H452L522 750H588L454 100Z"  />
<glyph unicode="e" horiz-adv-x="500" d="M417 291Q418 302 419 311T420 330Q420 393 393 430T303 468Q266 468 235 454T179 415T139 358T116 291H417ZM105 237Q102 217 102 196Q102 122 145 82T257 42Q305 42 340 52T406 76L401 15Q390 11 377 6T345 -3T304 -9T249 -12Q204 -12 166 1T100 40T55 106T39 196Q39 260 57 319T109 423T192 495T303 522Q393 522 438 471T483 332Q483 309 481 285T476 237H105Z"  />
<glyph unicode="f" horiz-adv-x="333" d="M171 456H61L74 510H183L194 561Q201 594 211 629T241 694T289 743T363 762Q381 762 398 760T433 751L418 698Q414 700 402 704T367 708Q339 708 321 695T290 659T271 607T257 548L249 510H376L363 456H237L139 0H73L171 456Z"  />
<glyph unicode="g" horiz-adv-x="556" d="M103 208Q103 176 111 148T135 99T178 66T239 54Q287 54 323 77T383 136T419 217T431 306Q431 340 423 369T397 421T354 455T293 468Q246 468 211 443T151 380T115 296T103 208ZM10 -118Q48 -143 86 -152T166 -162Q221 -162 257 -149T317 -111T355 -48T381 37L389 74H387Q320 0 216 0Q171 0 137 17T80 62T46 129T34 208Q34 268 50 325T100 425T181 495T294 522Q324 522 351 516T400 495T437 459T459 406H461Q470 458 485 510H548Q544 494 538 467T524 406L448 55Q434 -11 417 -62T370 -147T292 -198T166 -216Q121 -216 80 -209T-7 -182L10 -118Z"  />
<glyph unicode="h" horiz-adv-x="556" d="M189 750H255L179 427H181Q208 472 245 495T344 522Q413 522 458 484T504 374Q504 348 500 322T489 269L432 0H366L424 281Q429 306 432 325T435 370Q435 415 410 441T337 468Q296 468 265 449T211 400T173 330T149 250L94 0H28L189 750Z"  />
<glyph unicode="i" horiz-adv-x="222" d="M235 646H160L178 730H253L235 646ZM136 510H202L94 0H28L136 510Z"  />
<glyph unicode="j" horiz-adv-x="222" d="M233 646H158L176 730H251L233 646ZM84 -60Q78 -87 70 -115T46 -165T6 -202T-56 -216Q-73 -216 -88 -213T-120 -207L-103 -150Q-95 -154 -86 -155T-68 -156Q-48 -156 -33 -147T-8 -124T9 -94T18 -62L135 510H201L84 -60Z"  />
<glyph unicode="k" horiz-adv-x="500" d="M192 750H254L158 304H160L425 510H519L212 284L439 0H357L150 262L94 0H28L192 750Z"  />
<glyph unicode="l" horiz-adv-x="222" d="M188 750H254L94 0H28L188 750Z"  />
<glyph unicode="m" horiz-adv-x="833" d="M115 424Q120 443 123 466T128 510H191Q187 462 180 433H182Q200 457 217 474T252 501T292 517T340 522Q394 522 430 493T468 408H470Q495 462 538 492T643 522Q709 522 748 482T787 372Q787 357 783 331T772 276L714 0H648L705 270Q710 293 714 316T718 369Q718 411 699 439T633 468Q594 468 565 449T514 398T478 330T457 259L404 0H338L395 270Q400 293 404 316T408 369Q408 411 389 439T323 468Q284 468 255 449T204 398T168 330T147 259L94 0H28L115 424Z"  />
<glyph unicode="n" horiz-adv-x="556" d="M116 429Q121 455 123 473T128 510H191Q189 486 187 467T180 433H182Q208 474 252 498T344 522Q413 522 458 484T504 374Q504 348 499 321T489 269L432 0H366L424 281Q429 306 432 325T435 370Q435 415 410 441T337 468Q296 468 264 449T209 399T169 327T144 242L94 0H28L116 429Z"  />
<glyph unicode="o" horiz-adv-x="556" d="M108 200Q108 167 118 138T146 88T191 55T251 42Q300 42 338 65T403 126T443 210T457 302Q457 338 449 368T423 421T379 455T315 468Q262 468 223 445T159 383T121 297T108 200ZM39 210Q39 274 59 331T116 430T205 497T323 522Q372 522 409 507T473 462T512 393T526 303Q526 239 507 182T451 82T362 14T243 -12Q196 -12 158 5T94 51T53 121T39 210Z"  />
<glyph unicode="p" horiz-adv-x="556" d="M136 204Q136 174 143 145T166 93T206 56T264 42Q313 42 349 68T408 134T442 223T454 316Q454 347 447 375T425 423T387 456T330 468Q285 468 249 442T188 377T150 291T136 204ZM107 391Q113 420 118 450T127 510H190Q188 487 185 468T179 434H181Q207 475 251 498T348 522Q391 522 424 506T479 462T512 397T523 316Q523 257 507 198T458 93T377 17T264 -12Q210 -12 169 17T112 99H110L48 -210H-18L107 391Z"  />
<glyph unicode="q" horiz-adv-x="556" d="M108 194Q108 162 115 135T137 87T176 54T233 42Q280 42 316 66T378 128T416 214T429 306Q429 337 421 366T397 417T357 454T299 468Q250 468 214 442T155 376T120 287T108 194ZM384 66H382Q353 29 314 9T211 -12Q169 -12 137 4T83 49T50 115T39 194Q39 254 55 313T105 418T186 493T299 522Q361 522 401 490T453 406H455Q460 432 467 457T480 510H546Q538 483 532 458T518 406L386 -210H320L384 66Z"  />
<glyph unicode="r" horiz-adv-x="333" d="M114 419Q119 441 122 463T128 510H191Q189 486 187 467T180 433H182Q206 471 240 496T324 522Q340 522 353 520T379 515L364 448Q351 453 338 454T310 456Q271 456 244 437T197 388T166 322T147 251L95 0H28L114 419Z"  />
<glyph unicode="s" horiz-adv-x="389" d="M5 79Q32 62 63 52T126 42Q149 42 174 47T221 63T256 94T270 144Q270 172 255 191T218 225T170 255T121 286T84 325T69 380Q69 418 87 445T132 489T193 514T258 522Q327 522 389 497L368 438Q343 452 314 460T255 468Q236 468 215 465T176 451T147 425T135 381Q135 359 150 343T188 312T237 283T286 249T324 206T339 148Q339 104 321 74T274 25T208 -3T134 -12Q94 -12 59 -6T-14 16L5 79Z"  />
<glyph unicode="t" horiz-adv-x="333" d="M199 624L271 649L240 510H373L360 456H229L175 204Q170 178 165 154T160 104Q160 42 218 42Q247 42 272 56L266 2Q252 -5 237 -8T202 -12Q148 -12 120 14T91 83Q91 99 94 121T100 164T108 204T114 230L163 456H61L75 510H175L199 624Z"  />
<glyph unicode="u" horiz-adv-x="556" d="M445 81Q440 55 438 37T433 0H370Q372 24 374 43T381 77H379Q353 36 309 12T217 -12Q148 -12 103 26T57 136Q57 162 62 189T72 241L129 510H195L137 229Q132 204 129 185T126 140Q126 95 151 69T224 42Q265 42 297 61T352 111T392 183T417 268L467 510H533L445 81Z"  />
<glyph unicode="v" horiz-adv-x="444" d="M209 0H133L65 510H129L186 69H188L423 510H494L209 0Z"  />
<glyph unicode="w" horiz-adv-x="778" d="M65 510H130L168 69H170L410 510H485L534 69H536L757 510H828L563 0H486L434 441H432L193 0H118L65 510Z"  />
<glyph unicode="x" horiz-adv-x="444" d="M193 269L78 510H147L236 320L398 510H478L266 269L387 0H315L222 216L36 0H-41L193 269Z"  />
<glyph unicode="y" horiz-adv-x="444" d="M207 1L139 -120Q116 -164 85 -190T2 -216Q-15 -216 -30 -213T-59 -202L-44 -148Q-36 -156 -25 -159T-3 -162Q30 -162 55 -137T94 -82L137 -1L65 510H131L183 71H185L424 510H492L207 1Z"  />
<glyph unicode="z" horiz-adv-x="444" d="M-8 58L372 456H83L95 510H468L456 451L71 54H377L367 0H-20L-8 58Z"  />
<glyph unicode="{" horiz-adv-x="278" d="M380 708H347Q318 708 300 686T271 615L237 450Q229 414 214 388T182 346T149 320T124 309V307Q131 305 141 299T160 281T176 251T183 207Q183 197 182 187T178 164L145 2Q139 -25 139 -47Q139 -67 146 -79T169 -92H215L205 -140H155Q121 -140 99 -119T76 -57Q76 -48 76 -39T79 -18L114 152Q120 179 120 202Q120 238 107 261T58 284L68 332Q90 332 108 342T140 371T164 414T180 467L214 635Q226 693 262 724T341 756H390L380 708Z"  />
<glyph unicode="|" horiz-adv-x="222" d="M170 750V-250H101V750H170Z"  />
<glyph unicode="}" horiz-adv-x="278" d="M-51 -92H-18Q11 -92 29 -70T58 1L92 166Q99 202 114 228T147 270T180 296T205 307V309Q198 311 188 317T169 335T153 365T146 409Q146 419 147 429T151 452L184 614Q190 641 190 663Q190 683 183 695T160 708H114L124 756H174Q208 756 230 735T253 673Q253 664 253 655T250 634L215 464Q209 437 209 414Q209 378 222 355T271 332L261 284Q238 284 220 274T189 245T165 202T149 149L115 -19Q103 -77 67 -108T-12 -140H-61L-51 -92Z"  />
<glyph unicode="~" horiz-adv-x="600" d="M531 273Q523 257 512 241T485 212T451 191T406 182Q378 182 349 193T292 218T239 243T193 255Q163 255 143 232T105 182L69 233Q77 249 88 265T115 294T149 315T194 324Q222 324 251 313T308 288T361 263T407 251Q437 251 457 274T495 324L531 273Z"  />
<glyph unicode="&#xA0;" horiz-adv-x="278" />
<glyph unicode="&#xA1;" horiz-adv-x="389" d="M270 426H188L206 510H287L270 426ZM179 341H239L139 -188H55L179 341Z"  />
<glyph unicode="&#xA2;" horiz-adv-x="556" d="M469 630L434 517Q456 515 476 511T508 502L490 445Q480 450 460 455T417 464L285 45Q297 42 314 42Q343 42 370 50T422 66L414 3Q396 -3 367 -7T298 -12Q290 -12 283 -12T268 -10L228 -137H187L230 -2Q192 10 164 33T117 87T89 152T80 221Q80 288 99 343T155 439T249 500T379 522Q389 522 394 521L428 630H469ZM377 468H372Q318 468 276 450T206 398T164 321T149 226Q149 166 176 121T248 56L377 468Z"  />
<glyph unicode="&#xA3;" horiz-adv-x="556" d="M33 60H134L195 347H105L116 401H205L218 457Q230 509 247 554T293 633T365 686T471 705Q484 705 501 704T535 699T569 690T596 679L576 621Q550 634 524 639T469 645Q422 645 391 629T339 586T306 524T285 449L274 401H445L434 347H265L204 60H456L443 0H20L33 60Z"  />
<glyph unicode="&#xA4;" horiz-adv-x="556" d="M120 349Q120 311 134 277T172 217T228 176T299 161Q338 161 371 176T427 218T464 279T478 349Q478 385 465 419T427 479T371 521T299 537Q261 537 229 522T172 481T134 421T120 349ZM103 199Q51 263 51 349Q51 390 63 429T103 501L47 556L92 601L148 544Q179 570 219 583T299 597Q341 597 380 584T449 544L505 601L551 556L496 501Q522 471 534 431T547 349Q547 308 535 270T496 199L551 142L505 97L449 156Q420 128 381 115T299 101Q257 101 218 114T148 156L92 97L47 142L103 199Z"  />
<glyph unicode="&#xA5;" horiz-adv-x="556" d="M226 175H89L100 223H236L254 304H110L122 352H232L93 698H162L296 352L581 698H660L365 352H488L474 304H321L303 223H460L449 175H292L253 0H189L226 175Z"  />
<glyph unicode="&#xA6;" horiz-adv-x="222" d="M170 175V-175H101V175H170ZM170 675V325H101V675H170Z"  />
<glyph unicode="&#xA7;" horiz-adv-x="556" d="M416 313Q416 337 400 354T360 384T313 409T272 431Q255 419 237 407T202 381T176 348T166 306Q166 278 181 259T218 226T265 200T313 177Q328 188 346 203T379 236T405 273T416 313ZM500 621Q470 636 440 646T371 656Q312 656 277 632T241 555Q241 528 258 510T302 478T360 450T417 420T461 380T479 320Q479 293 467 268T437 222T397 184T353 154Q416 116 416 41Q416 3 398 -27T350 -77T283 -109T208 -120Q176 -120 154 -118T111 -110T72 -98T27 -79L46 -20Q81 -42 121 -54T200 -66Q227 -66 253 -61T301 -43T334 -10T347 40Q347 73 329 93T284 127T225 154T166 185T121 229T103 299Q103 329 114 353T145 396T188 430T238 454Q206 471 189 499T172 563Q172 599 187 626T228 672T290 700T364 710Q399 710 444 701T523 674L500 621Z"  />
<glyph unicode="&#xA8;" horiz-adv-x="222" d="M241 730H318L302 646H225L241 730ZM66 730H143L127 646H50L66 730Z"  />
<glyph unicode="&#xA9;" horiz-adv-x="800" d="M62 349Q64 503 169 605Q271 708 423 710Q577 708 679 605Q782 503 784 349Q782 197 679 95Q577 -10 423 -12Q271 -10 169 95Q64 197 62 349ZM614 280Q576 127 436 124Q337 125 280 190Q221 252 220 349Q220 449 277 511Q333 574 433 575Q504 575 553 537Q601 499 613 424H553Q544 469 513 495Q483 521 434 521Q363 520 327 473Q289 427 289 350Q289 279 329 230Q368 179 436 178Q485 178 515 207Q545 235 553 280H614ZM131 349Q132 217 215 131Q296 43 424 42Q551 43 632 131Q714 217 715 349Q714 483 632 568Q551 654 424 656Q296 654 215 568Q132 483 131 349Z"  />
<glyph unicode="&#xAA;" horiz-adv-x="325" d="M115 479Q115 456 134 443T179 430Q208 430 229 440T265 467T288 505T300 548H260Q241 548 216 546T169 538T131 517T115 479ZM143 684Q167 695 191 702T243 710Q294 710 327 685T360 607Q360 598 357 580T348 542T338 502T330 473Q325 456 323 438T318 396H273Q275 412 276 423T280 442H278Q239 388 165 388Q145 388 127 394T95 412T73 440T64 478Q64 515 84 537T135 571T199 586T262 590H307Q308 590 308 596T309 608Q309 638 289 653T236 668Q208 668 185 659T138 636L143 684Z"  />
<glyph unicode="&#xAB;" horiz-adv-x="500" d="M32 269L222 474H294L98 269L251 64H185L32 269ZM215 269L405 474H477L281 269L434 64H368L215 269Z"  />
<glyph unicode="&#xAC;" horiz-adv-x="600" d="M61 388H568V114H499V319H61V388Z"  />
<glyph unicode="&#xAD;" horiz-adv-x="333" d="M50 304H305L294 235H39L50 304Z"  />
<glyph unicode="&#xAE;" horiz-adv-x="800" d="M354 379H436Q477 378 500 392Q523 406 523 445Q522 481 497 495Q470 507 436 507H354V379ZM285 561H447Q592 561 592 442Q592 390 563 359Q534 325 483 325L603 138H530L412 325H354V138H285V561ZM131 349Q132 217 215 131Q296 43 424 42Q551 43 632 131Q714 217 715 349Q714 483 632 568Q551 654 424 656Q296 654 215 568Q132 483 131 349ZM62 349Q64 503 169 605Q271 708 423 710Q577 708 679 605Q782 503 784 349Q782 197 679 95Q577 -10 423 -12Q271 -10 169 95Q64 197 62 349Z"  />
<glyph unicode="&#xAF;" horiz-adv-x="222" d="M299 622H42L53 676H310L299 622Z"  />
<glyph unicode="&#xB0;" horiz-adv-x="400" d="M260 705Q292 705 320 694T371 664T405 617T418 556Q418 523 406 496T371 449T321 418T260 407Q228 407 200 418T149 448T115 495T102 556Q102 589 114 616T149 663T199 694T260 705ZM260 657Q214 657 184 631T153 556Q153 535 162 517T186 485T220 463T260 455Q281 455 300 463T334 484T358 516T367 556Q367 604 337 630T260 657Z"  />
<glyph unicode="&#xB1;" horiz-adv-x="600" d="M61 69H568V0H61V69ZM61 338H280V507H349V338H568V269H349V100H280V269H61V338Z"  />
<glyph unicode="&#xB2;" horiz-adv-x="361" d="M55 320L212 448Q226 460 247 477T287 514T321 555T335 595Q335 613 328 624T310 643T284 654T256 657Q220 657 191 645T142 619L145 672Q172 687 201 696T262 705Q287 705 310 699T352 680T381 645T392 595Q392 573 381 551T353 509T316 471T278 439L143 334V332H330L321 284H44L55 320Z"  />
<glyph unicode="&#xB3;" horiz-adv-x="361" d="M132 524Q154 524 185 525T244 534T292 557T312 599Q312 614 303 624T279 642T249 653T219 657Q188 657 162 652T108 632L113 685Q136 696 165 700T220 705Q244 705 270 701T319 685T355 653T369 599Q369 575 358 558T330 530T290 512T245 504V502Q283 497 304 472T326 408Q326 372 307 348T260 307T197 284T134 277Q74 277 14 294L26 344Q52 333 79 329T135 325Q155 325 178 330T222 345T255 372T269 411Q269 436 254 449T217 469T170 475T122 476L132 524Z"  />
<glyph unicode="&#xB4;" horiz-adv-x="222" d="M204 722H283L166 578H119L204 722Z"  />
<glyph unicode="&#xB5;" horiz-adv-x="556" d="M129 510H195L137 229Q132 204 129 185T126 140Q126 95 151 69T224 42Q265 42 297 61T352 111T392 183T417 268L467 510H533L445 81Q440 55 438 37T433 0H370Q372 24 374 43T381 77H379Q353 36 309 12T217 -12Q129 -12 90 38L37 -210H-29L129 510Z"  />
<glyph unicode="&#xB6;" horiz-adv-x="600" d="M283 320Q244 320 209 332T146 368T103 423T87 496Q87 537 102 573T148 638T225 682T332 698H364H426H562H620L455 -108H392L546 644H413L259 -108H196L283 320Z"  />
<glyph unicode="&#xB7;" horiz-adv-x="278" d="M111 310Q111 330 125 344T160 359Q180 359 195 345T210 310Q210 290 195 275T160 260Q140 260 126 275T111 310Z"  />
<glyph unicode="&#xB8;" horiz-adv-x="222" d="M-8 -127Q6 -137 29 -146T80 -155Q98 -155 116 -145T134 -109Q134 -90 121 -82T94 -73Q86 -73 74 -74T53 -80L91 0H123L99 -47V-49Q106 -45 113 -44T131 -43Q159 -43 178 -58T197 -106Q197 -129 187 -144T160 -168T125 -181T87 -185Q52 -185 29 -177T-15 -158L-8 -127Z"  />
<glyph unicode="&#xB9;" horiz-adv-x="361" d="M251 650L165 594L144 628L266 705H319L223 284H166L251 650Z"  />
<glyph unicode="&#xBA;" horiz-adv-x="361" d="M131 518Q131 483 155 457T224 430Q256 430 280 444T322 479T348 527T357 577Q357 615 335 641T265 668Q230 668 205 655T164 619T139 571T131 518ZM80 524Q80 560 94 594T133 653T193 694T270 710Q302 710 327 700T371 672T398 630T408 578Q408 542 395 508T356 447T296 404T218 388Q187 388 162 399T118 428T90 472T80 524Z"  />
<glyph unicode="&#xBB;" horiz-adv-x="500" d="M468 269L278 64H206L402 269L249 474H315L468 269ZM285 269L95 64H23L219 269L66 474H132L285 269Z"  />
<glyph unicode="&#xBC;" horiz-adv-x="834" d="M699 366H697L481 139H646L699 366ZM633 91H408L415 136L688 421H767L701 139H753L743 91H691L669 0H612L633 91ZM205 650L119 594L98 628L220 705H273L177 284H120L205 650ZM570 720H627L182 -22H125L570 720Z"  />
<glyph unicode="&#xBD;" horiz-adv-x="834" d="M438 36L595 164Q609 176 630 193T670 230T704 271T718 311Q718 329 711 340T693 359T667 370T639 373Q603 373 574 361T525 335L528 388Q555 403 584 412T645 421Q670 421 693 415T735 396T764 361T775 311Q775 289 764 267T736 225T699 187T661 155L526 50V48H713L704 0H427L438 36ZM221 650L135 594L114 628L236 705H289L193 284H136L221 650ZM548 720H605L160 -22H103L548 720Z"  />
<glyph unicode="&#xBE;" horiz-adv-x="834" d="M739 366H737L521 139H686L739 366ZM673 91H448L455 136L728 421H807L741 139H793L783 91H731L709 0H652L673 91ZM145 524Q167 524 198 525T257 534T305 557T325 599Q325 614 316 624T292 642T262 653T232 657Q201 657 175 652T121 632L126 685Q149 696 178 700T233 705Q257 705 283 701T332 685T368 653T382 599Q382 575 371 558T343 530T303 512T258 504V502Q296 497 317 472T339 408Q339 372 320 348T273 307T210 284T147 277Q87 277 27 294L39 344Q65 333 92 329T148 325Q168 325 191 330T235 345T268 372T282 411Q282 436 267 449T230 469T183 475T135 476L145 524ZM650 720H707L262 -22H205L650 720Z"  />
<glyph unicode="&#xBF;" horiz-adv-x="500" d="M380 426H297L314 510H396L380 426ZM345 -178Q315 -186 285 -193T222 -200Q184 -200 150 -191T90 -162T48 -112T32 -39Q32 -9 42 16T68 63T104 103T146 140Q165 156 187 174T231 214T268 259T290 309L297 341H355L347 302Q341 272 326 246T291 196T247 152T200 112Q181 97 163 82T132 48T110 9T101 -39Q101 -67 113 -86T145 -117T189 -134T235 -140Q262 -140 296 -133T356 -114L345 -178Z"  />
<glyph unicode="&#xC0;" horiz-adv-x="667" d="M391 698H473L609 0H539L504 187H147L32 0H-42L391 698ZM420 629L184 247H493L420 629ZM496 738H454L332 882H411L496 738Z"  />
<glyph unicode="&#xC1;" horiz-adv-x="667" d="M391 698H473L609 0H539L504 187H147L32 0H-42L391 698ZM420 629L184 247H493L420 629ZM474 882H553L436 738H389L474 882Z"  />
<glyph unicode="&#xC2;" horiz-adv-x="667" d="M391 698H473L609 0H539L504 187H147L32 0H-42L391 698ZM420 629L184 247H493L420 629ZM420 882H496L571 738H527L455 840L347 738H303L420 882Z"  />
<glyph unicode="&#xC3;" horiz-adv-x="667" d="M391 698H473L609 0H539L504 187H147L32 0H-42L391 698ZM420 629L184 247H493L420 629ZM574 854Q574 837 568 821T551 791T525 771T492 763Q477 763 463 768T435 778T408 787T380 792Q362 792 353 781T342 755H306Q306 772 312 788T329 817T355 838T388 846Q404 846 417 842T445 832T472 822T500 817Q518 817 527 827T538 854H574Z"  />
<glyph unicode="&#xC4;" horiz-adv-x="667" d="M391 698H473L609 0H539L504 187H147L32 0H-42L391 698ZM420 629L184 247H493L420 629ZM512 851H589L573 767H496L512 851ZM337 851H414L398 767H321L337 851Z"  />
<glyph unicode="&#xC5;" horiz-adv-x="667" d="M391 698H473L609 0H539L504 187H147L32 0H-42L391 698ZM420 629L184 247H493L420 629ZM390 816Q390 790 408 775Q425 757 450 757Q476 757 493 775Q510 790 510 816Q510 842 493 859Q476 875 450 875Q425 875 408 859Q390 842 390 816ZM354 816Q354 858 382 884Q409 910 450 911Q491 910 519 884Q545 858 546 816Q545 775 519 749Q491 721 450 721Q409 721 382 749Q354 775 354 816Z"  />
<glyph unicode="&#xC6;" horiz-adv-x="889" d="M531 644H529L225 247H481L531 644ZM486 698H538H604H914L902 638H596L568 389H832L819 329H561L526 60H791L777 0H521H450L474 187H181L38 0H-42L486 698Z"  />
<glyph unicode="&#xC7;" horiz-adv-x="611" d="M653 616Q615 636 573 643T485 650Q409 650 346 623T238 547T168 434T143 293Q143 242 162 198T215 120T295 67T397 48Q430 48 451 50T489 55T518 63T546 71L538 10Q517 4 487 -4T402 -12Q380 -12 361 -9L342 -47V-49Q349 -45 356 -44T374 -43Q402 -43 421 -58T440 -106Q440 -129 430 -144T403 -168T368 -181T330 -185Q295 -185 272 -177T228 -158L235 -127Q249 -137 272 -146T323 -155Q341 -155 359 -145T377 -109Q377 -90 364 -82T337 -73Q329 -73 317 -74T296 -80L332 -4Q277 5 230 30T148 93T94 182T74 294Q74 385 105 461T191 593T322 679T489 710Q546 710 589 702T677 674L653 616Z"  />
<glyph unicode="&#xC8;" horiz-adv-x="500" d="M181 698H253H525L514 638H237L186 389H447L436 329H174L118 60H405L395 0H102H37L181 698ZM411 738H369L247 882H326L411 738Z"  />
<glyph unicode="&#xC9;" horiz-adv-x="500" d="M181 698H253H525L514 638H237L186 389H447L436 329H174L118 60H405L395 0H102H37L181 698ZM390 882H469L352 738H305L390 882Z"  />
<glyph unicode="&#xCA;" horiz-adv-x="500" d="M181 698H253H525L514 638H237L186 389H447L436 329H174L118 60H405L395 0H102H37L181 698ZM336 882H412L487 738H443L371 840L263 738H219L336 882Z"  />
<glyph unicode="&#xCB;" horiz-adv-x="500" d="M181 698H253H525L514 638H237L186 389H447L436 329H174L118 60H405L395 0H102H37L181 698ZM428 851H505L489 767H412L428 851ZM253 851H330L314 767H237L253 851Z"  />
<glyph unicode="&#xCC;" horiz-adv-x="222" d="M176 698H245L97 0H28L176 698ZM271 738H229L107 882H186L271 738Z"  />
<glyph unicode="&#xCD;" horiz-adv-x="222" d="M176 698H245L97 0H28L176 698ZM253 882H332L215 738H168L253 882Z"  />
<glyph unicode="&#xCE;" horiz-adv-x="222" d="M176 698H245L97 0H28L176 698ZM197 882H273L348 738H304L232 840L124 738H80L197 882Z"  />
<glyph unicode="&#xCF;" horiz-adv-x="222" d="M176 698H245L97 0H28L176 698ZM289 851H366L350 767H273L289 851ZM114 851H191L175 767H98L114 851Z"  />
<glyph unicode="&#xD0;" horiz-adv-x="667" d="M190 389H384L370 329H177L119 60H242Q321 60 383 84T489 154T556 266T579 418Q579 476 561 518T511 586T432 625T330 638H243L190 389ZM107 329H40L52 389H120L185 698H256H309Q379 698 441 684T549 638T621 551T648 418Q648 325 622 248T544 116T419 31T248 0H106H37L107 329Z"  />
<glyph unicode="&#xD1;" horiz-adv-x="667" d="M179 698H246H261L494 84H496L626 698H689L541 0H474H459L226 614H224L92 0H28L179 698ZM574 854Q574 837 568 821T551 791T525 771T492 763Q477 763 463 768T435 778T408 787T380 792Q362 792 353 781T342 755H306Q306 772 312 788T329 817T355 838T388 846Q404 846 417 842T445 832T472 822T500 817Q518 817 527 827T538 854H574Z"  />
<glyph unicode="&#xD2;" horiz-adv-x="722" d="M136 279Q136 230 148 188T184 115T246 66T333 48Q403 48 458 82T553 169T612 288T633 419Q633 468 621 510T585 583T523 632T436 650Q366 650 311 616T216 529T157 410T136 279ZM67 273Q67 356 92 434T165 574T282 673T438 710Q502 710 551 690T634 632T685 542T702 425Q702 342 677 264T604 124T487 25T331 -12Q266 -12 217 8T135 66T84 156T67 273ZM529 738H487L365 882H444L529 738Z"  />
<glyph unicode="&#xD3;" horiz-adv-x="722" d="M136 279Q136 230 148 188T184 115T246 66T333 48Q403 48 458 82T553 169T612 288T633 419Q633 468 621 510T585 583T523 632T436 650Q366 650 311 616T216 529T157 410T136 279ZM67 273Q67 356 92 434T165 574T282 673T438 710Q502 710 551 690T634 632T685 542T702 425Q702 342 677 264T604 124T487 25T331 -12Q266 -12 217 8T135 66T84 156T67 273ZM495 882H574L457 738H410L495 882Z"  />
<glyph unicode="&#xD4;" horiz-adv-x="722" d="M136 279Q136 230 148 188T184 115T246 66T333 48Q403 48 458 82T553 169T612 288T633 419Q633 468 621 510T585 583T523 632T436 650Q366 650 311 616T216 529T157 410T136 279ZM67 273Q67 356 92 434T165 574T282 673T438 710Q502 710 551 690T634 632T685 542T702 425Q702 342 677 264T604 124T487 25T331 -12Q266 -12 217 8T135 66T84 156T67 273ZM446 882H522L597 738H553L481 840L373 738H329L446 882Z"  />
<glyph unicode="&#xD5;" horiz-adv-x="722" d="M136 279Q136 230 148 188T184 115T246 66T333 48Q403 48 458 82T553 169T612 288T633 419Q633 468 621 510T585 583T523 632T436 650Q366 650 311 616T216 529T157 410T136 279ZM67 273Q67 356 92 434T165 574T282 673T438 710Q502 710 551 690T634 632T685 542T702 425Q702 342 677 264T604 124T487 25T331 -12Q266 -12 217 8T135 66T84 156T67 273ZM599 854Q599 837 593 821T576 791T550 771T517 763Q502 763 488 768T460 778T433 787T405 792Q387 792 378 781T367 755H331Q331 772 337 788T354 817T380 838T413 846Q429 846 442 842T470 832T497 822T525 817Q543 817 552 827T563 854H599Z"  />
<glyph unicode="&#xD6;" horiz-adv-x="722" d="M136 279Q136 230 148 188T184 115T246 66T333 48Q403 48 458 82T553 169T612 288T633 419Q633 468 621 510T585 583T523 632T436 650Q366 650 311 616T216 529T157 410T136 279ZM67 273Q67 356 92 434T165 574T282 673T438 710Q502 710 551 690T634 632T685 542T702 425Q702 342 677 264T604 124T487 25T331 -12Q266 -12 217 8T135 66T84 156T67 273ZM539 857H616L600 773H523L539 857ZM364 857H441L425 773H348L364 857Z"  />
<glyph unicode="&#xD7;" horiz-adv-x="600" d="M86 437L135 486L316 305L495 486L545 437L365 257L545 76L495 26L316 208L135 26L86 76L267 257L86 437Z"  />
<glyph unicode="&#xD8;" horiz-adv-x="722" d="M749 683L661 595Q702 527 702 425Q702 342 677 264T604 124T487 25T331 -12Q266 -12 217 8T134 67L53 -14L20 15L108 103Q67 171 67 273Q67 356 92 434T165 574T282 673T438 710Q503 710 552 690T635 631L716 712L749 683ZM184 117Q208 85 245 67T333 48Q403 48 458 82T553 169T612 288T633 419Q633 489 608 542L184 117ZM585 581Q560 613 524 631T436 650Q366 650 311 616T216 529T157 410T136 279Q136 244 142 213T161 156L585 581Z"  />
<glyph unicode="&#xD9;" horiz-adv-x="667" d="M594 266Q584 205 562 154T504 66T421 9T312 -12Q262 -12 220 2T147 44T99 113T82 208Q82 232 86 263T96 327T109 391T122 447L177 698H243L172 358Q169 343 166 324T159 285T153 246T151 211Q151 134 193 91T311 48Q356 48 391 63T452 104T495 166T522 243L623 698H687L594 266ZM495 738H453L331 882H410L495 738Z"  />
<glyph unicode="&#xDA;" horiz-adv-x="667" d="M594 266Q584 205 562 154T504 66T421 9T312 -12Q262 -12 220 2T147 44T99 113T82 208Q82 232 86 263T96 327T109 391T122 447L177 698H243L172 358Q169 343 166 324T159 285T153 246T151 211Q151 134 193 91T311 48Q356 48 391 63T452 104T495 166T522 243L623 698H687L594 266ZM474 882H553L436 738H389L474 882Z"  />
<glyph unicode="&#xDB;" horiz-adv-x="667" d="M594 266Q584 205 562 154T504 66T421 9T312 -12Q262 -12 220 2T147 44T99 113T82 208Q82 232 86 263T96 327T109 391T122 447L177 698H243L172 358Q169 343 166 324T159 285T153 246T151 211Q151 134 193 91T311 48Q356 48 391 63T452 104T495 166T522 243L623 698H687L594 266ZM420 882H496L571 738H527L455 840L347 738H303L420 882Z"  />
<glyph unicode="&#xDC;" horiz-adv-x="667" d="M594 266Q584 205 562 154T504 66T421 9T312 -12Q262 -12 220 2T147 44T99 113T82 208Q82 232 86 263T96 327T109 391T122 447L177 698H243L172 358Q169 343 166 324T159 285T153 246T151 211Q151 134 193 91T311 48Q356 48 391 63T452 104T495 166T522 243L623 698H687L594 266ZM494 851H571L555 767H478L494 851ZM319 851H396L380 767H303L319 851Z"  />
<glyph unicode="&#xDD;" horiz-adv-x="611" d="M283 295L106 698H179L326 352L620 698H703L350 295L287 0H220L283 295ZM447 882H526L409 738H362L447 882Z"  />
<glyph unicode="&#xDE;" horiz-adv-x="500" d="M187 698H256L228 568H278Q327 568 369 562T444 536T494 483T513 393Q513 337 490 296T429 227T342 186T242 172H143L106 0H37L187 698ZM157 232H235Q275 232 312 240T379 268T426 317T444 393Q444 429 431 451T397 486T347 503T289 508H216L157 232Z"  />
<glyph unicode="&#xDF;" horiz-adv-x="556" d="M282 421Q321 421 356 430T419 460T463 512T479 585Q479 641 450 674T365 708Q330 708 305 691T260 648T229 590T211 528L100 0H34L141 509Q155 577 175 625T222 703T286 748T369 762Q450 762 499 719T548 590Q548 552 535 518T498 458T442 416T370 398V396Q437 388 473 347T510 243Q510 186 493 140T444 62T368 11T270 -7Q235 -7 208 -3T160 10L178 69Q215 47 268 47Q309 47 341 61T396 101T429 161T441 234Q441 271 428 296T393 337T340 360T273 367L282 421Z"  />
<glyph unicode="&#xE0;" horiz-adv-x="500" d="M84 132Q84 110 92 94T114 66T146 48T183 42Q227 42 259 60T314 108T350 176T369 255Q353 255 338 256T307 257Q275 257 236 253T164 237T107 199T84 132ZM409 121Q401 92 397 59T390 0H327Q329 20 331 39T337 75H335Q303 27 261 8T161 -12Q131 -12 105 -2T58 28T27 73T15 131Q15 187 43 222T114 277T209 304T308 311Q328 311 345 310T377 307Q380 329 380 358Q380 411 352 439T271 468Q226 468 186 453T120 424L127 488Q154 499 195 510T281 522Q364 522 406 479T449 356Q449 341 446 315T436 259L409 121ZM362 578H320L198 722H277L362 578Z"  />
<glyph unicode="&#xE1;" horiz-adv-x="500" d="M84 132Q84 110 92 94T114 66T146 48T183 42Q227 42 259 60T314 108T350 176T369 255Q353 255 338 256T307 257Q275 257 236 253T164 237T107 199T84 132ZM409 121Q401 92 397 59T390 0H327Q329 20 331 39T337 75H335Q303 27 261 8T161 -12Q131 -12 105 -2T58 28T27 73T15 131Q15 187 43 222T114 277T209 304T308 311Q328 311 345 310T377 307Q380 329 380 358Q380 411 352 439T271 468Q226 468 186 453T120 424L127 488Q154 499 195 510T281 522Q364 522 406 479T449 356Q449 341 446 315T436 259L409 121ZM343 722H422L305 578H258L343 722Z"  />
<glyph unicode="&#xE2;" horiz-adv-x="500" d="M84 132Q84 110 92 94T114 66T146 48T183 42Q227 42 259 60T314 108T350 176T369 255Q353 255 338 256T307 257Q275 257 236 253T164 237T107 199T84 132ZM409 121Q401 92 397 59T390 0H327Q329 20 331 39T337 75H335Q303 27 261 8T161 -12Q131 -12 105 -2T58 28T27 73T15 131Q15 187 43 222T114 277T209 304T308 311Q328 311 345 310T377 307Q380 329 380 358Q380 411 352 439T271 468Q226 468 186 453T120 424L127 488Q154 499 195 510T281 522Q364 522 406 479T449 356Q449 341 446 315T436 259L409 121ZM288 722H364L439 578H395L323 680L215 578H171L288 722Z"  />
<glyph unicode="&#xE3;" horiz-adv-x="500" d="M84 132Q84 110 92 94T114 66T146 48T183 42Q227 42 259 60T314 108T350 176T369 255Q353 255 338 256T307 257Q275 257 236 253T164 237T107 199T84 132ZM409 121Q401 92 397 59T390 0H327Q329 20 331 39T337 75H335Q303 27 261 8T161 -12Q131 -12 105 -2T58 28T27 73T15 131Q15 187 43 222T114 277T209 304T308 311Q328 311 345 310T377 307Q380 329 380 358Q380 411 352 439T271 468Q226 468 186 453T120 424L127 488Q154 499 195 510T281 522Q364 522 406 479T449 356Q449 341 446 315T436 259L409 121ZM442 693Q442 676 436 660T419 630T393 610T360 602Q345 602 331 607T303 617T276 626T248 631Q230 631 221 620T210 594H174Q174 611 180 627T197 656T223 677T256 685Q272 685 285 681T313 671T340 661T368 656Q386 656 395 666T406 693H442Z"  />
<glyph unicode="&#xE4;" horiz-adv-x="500" d="M84 132Q84 110 92 94T114 66T146 48T183 42Q227 42 259 60T314 108T350 176T369 255Q353 255 338 256T307 257Q275 257 236 253T164 237T107 199T84 132ZM409 121Q401 92 397 59T390 0H327Q329 20 331 39T337 75H335Q303 27 261 8T161 -12Q131 -12 105 -2T58 28T27 73T15 131Q15 187 43 222T114 277T209 304T308 311Q328 311 345 310T377 307Q380 329 380 358Q380 411 352 439T271 468Q226 468 186 453T120 424L127 488Q154 499 195 510T281 522Q364 522 406 479T449 356Q449 341 446 315T436 259L409 121ZM380 730H457L441 646H364L380 730ZM205 730H282L266 646H189L205 730Z"  />
<glyph unicode="&#xE5;" horiz-adv-x="500" d="M84 132Q84 110 92 94T114 66T146 48T183 42Q227 42 259 60T314 108T350 176T369 255Q353 255 338 256T307 257Q275 257 236 253T164 237T107 199T84 132ZM409 121Q401 92 397 59T390 0H327Q329 20 331 39T337 75H335Q303 27 261 8T161 -12Q131 -12 105 -2T58 28T27 73T15 131Q15 187 43 222T114 277T209 304T308 311Q328 311 345 310T377 307Q380 329 380 358Q380 411 352 439T271 468Q226 468 186 453T120 424L127 488Q154 499 195 510T281 522Q364 522 406 479T449 356Q449 341 446 315T436 259L409 121ZM224 660Q224 634 241 615T288 596Q317 596 334 615T351 660Q351 686 334 704T288 723Q259 723 242 705T224 660ZM188 660Q188 680 196 698T218 729T250 751T288 759Q308 759 326 751T357 730T379 698T387 660Q387 640 380 622T359 590T327 568T288 560Q268 560 250 568T218 589T196 621T188 660Z"  />
<glyph unicode="&#xE6;" horiz-adv-x="778" d="M698 291Q700 302 701 314T703 346Q703 402 679 435T594 468Q554 468 525 454T475 415T442 358T424 291H698ZM79 131Q79 109 87 93T109 65T140 48T177 42Q219 42 249 58T299 102T332 165T349 237H302Q267 237 228 233T156 218T101 185T79 131ZM415 237Q413 228 412 218T411 192Q411 165 419 138T445 90T489 56T552 42Q584 42 617 49T679 68L673 8Q657 2 644 -1T618 -7T591 -11T561 -12Q525 -12 493 -5T435 18T390 59T362 122H360Q351 87 334 62T292 21T238 -4T175 -12Q143 -12 114 -3T61 23T24 65T10 123Q10 201 76 246T276 291H357Q358 303 359 315T360 342Q363 401 337 434T258 468Q223 468 187 456T122 426L131 491Q164 505 200 513T272 522Q297 522 320 517T362 499T395 468T414 420H417Q429 446 448 465T491 497T541 516T594 522Q683 522 724 475T766 347Q766 306 763 282T758 237H415Z"  />
<glyph unicode="&#xE7;" horiz-adv-x="444" d="M449 445Q442 449 428 453T398 460T364 466T331 468Q277 468 235 450T165 398T123 321T108 226Q108 187 120 153T155 95T207 56T273 42Q302 42 329 50T381 66L373 3Q355 -3 326 -7T257 -12H250L232 -47V-49Q239 -45 246 -44T264 -43Q292 -43 311 -58T330 -106Q330 -129 320 -144T293 -168T258 -181T220 -185Q185 -185 162 -177T118 -158L125 -127Q139 -137 162 -146T213 -155Q231 -155 249 -145T267 -109Q267 -90 254 -82T227 -73Q219 -73 207 -74T186 -80L220 -8Q174 -1 140 21T84 76T50 145T39 221Q39 288 58 343T114 439T208 500T338 522Q354 522 372 521T408 516T441 510T467 502L449 445Z"  />
<glyph unicode="&#xE8;" horiz-adv-x="500" d="M417 291Q418 302 419 311T420 330Q420 393 393 430T303 468Q266 468 235 454T179 415T139 358T116 291H417ZM105 237Q102 217 102 196Q102 122 145 82T257 42Q305 42 340 52T406 76L401 15Q390 11 377 6T345 -3T304 -9T249 -12Q204 -12 166 1T100 40T55 106T39 196Q39 260 57 319T109 423T192 495T303 522Q393 522 438 471T483 332Q483 309 481 285T476 237H105ZM362 578H320L198 722H277L362 578Z"  />
<glyph unicode="&#xE9;" horiz-adv-x="500" d="M417 291Q418 302 419 311T420 330Q420 393 393 430T303 468Q266 468 235 454T179 415T139 358T116 291H417ZM105 237Q102 217 102 196Q102 122 145 82T257 42Q305 42 340 52T406 76L401 15Q390 11 377 6T345 -3T304 -9T249 -12Q204 -12 166 1T100 40T55 106T39 196Q39 260 57 319T109 423T192 495T303 522Q393 522 438 471T483 332Q483 309 481 285T476 237H105ZM343 722H422L305 578H258L343 722Z"  />
<glyph unicode="&#xEA;" horiz-adv-x="500" d="M417 291Q418 302 419 311T420 330Q420 393 393 430T303 468Q266 468 235 454T179 415T139 358T116 291H417ZM105 237Q102 217 102 196Q102 122 145 82T257 42Q305 42 340 52T406 76L401 15Q390 11 377 6T345 -3T304 -9T249 -12Q204 -12 166 1T100 40T55 106T39 196Q39 260 57 319T109 423T192 495T303 522Q393 522 438 471T483 332Q483 309 481 285T476 237H105ZM288 722H364L439 578H395L323 680L215 578H171L288 722Z"  />
<glyph unicode="&#xEB;" horiz-adv-x="500" d="M417 291Q418 302 419 311T420 330Q420 393 393 430T303 468Q266 468 235 454T179 415T139 358T116 291H417ZM105 237Q102 217 102 196Q102 122 145 82T257 42Q305 42 340 52T406 76L401 15Q390 11 377 6T345 -3T304 -9T249 -12Q204 -12 166 1T100 40T55 106T39 196Q39 260 57 319T109 423T192 495T303 522Q393 522 438 471T483 332Q483 309 481 285T476 237H105ZM380 730H457L441 646H364L380 730ZM205 730H282L266 646H189L205 730Z"  />
<glyph unicode="&#xEC;" horiz-adv-x="222" d="M136 510H202L94 0H28L136 510ZM223 578H181L59 722H138L223 578Z"  />
<glyph unicode="&#xED;" horiz-adv-x="222" d="M136 510H202L94 0H28L136 510ZM204 722H283L166 578H119L204 722Z"  />
<glyph unicode="&#xEE;" horiz-adv-x="222" d="M136 510H202L94 0H28L136 510ZM149 722H225L300 578H256L184 680L76 578H32L149 722Z"  />
<glyph unicode="&#xEF;" horiz-adv-x="222" d="M136 510H202L94 0H28L136 510ZM241 730H318L302 646H225L241 730ZM66 730H143L127 646H50L66 730Z"  />
<glyph unicode="&#xF0;" horiz-adv-x="556" d="M308 673Q257 709 203 724L229 762Q306 741 362 703L470 762L502 728L401 672Q465 613 495 529T526 338Q526 261 508 197T454 87T365 14T243 -12Q196 -12 158 5T94 51T53 121T39 210Q39 274 59 331T116 430T205 497T323 522Q374 517 403 501T451 454H453Q442 511 414 559T347 641L234 578L200 614L308 673ZM108 200Q108 167 118 138T146 88T191 55T251 42Q300 42 338 65T403 126T443 210T457 302Q457 338 449 368T423 421T379 455T315 468Q262 468 223 445T159 383T121 297T108 200Z"  />
<glyph unicode="&#xF1;" horiz-adv-x="556" d="M116 429Q121 455 123 473T128 510H191Q189 486 187 467T180 433H182Q208 474 252 498T344 522Q413 522 458 484T504 374Q504 348 499 321T489 269L432 0H366L424 281Q429 306 432 325T435 370Q435 415 410 441T337 468Q296 468 264 449T209 399T169 327T144 242L94 0H28L116 429ZM470 693Q470 676 464 660T447 630T421 610T388 602Q373 602 359 607T331 617T304 626T276 631Q258 631 249 620T238 594H202Q202 611 208 627T225 656T251 677T284 685Q300 685 313 681T341 671T368 661T396 656Q414 656 423 666T434 693H470Z"  />
<glyph unicode="&#xF2;" horiz-adv-x="556" d="M108 200Q108 167 118 138T146 88T191 55T251 42Q300 42 338 65T403 126T443 210T457 302Q457 338 449 368T423 421T379 455T315 468Q262 468 223 445T159 383T121 297T108 200ZM39 210Q39 274 59 331T116 430T205 497T323 522Q372 522 409 507T473 462T512 393T526 303Q526 239 507 182T451 82T362 14T243 -12Q196 -12 158 5T94 51T53 121T39 210ZM390 578H348L226 722H305L390 578Z"  />
<glyph unicode="&#xF3;" horiz-adv-x="556" d="M108 200Q108 167 118 138T146 88T191 55T251 42Q300 42 338 65T403 126T443 210T457 302Q457 338 449 368T423 421T379 455T315 468Q262 468 223 445T159 383T121 297T108 200ZM39 210Q39 274 59 331T116 430T205 497T323 522Q372 522 409 507T473 462T512 393T526 303Q526 239 507 182T451 82T362 14T243 -12Q196 -12 158 5T94 51T53 121T39 210ZM371 722H450L333 578H286L371 722Z"  />
<glyph unicode="&#xF4;" horiz-adv-x="556" d="M108 200Q108 167 118 138T146 88T191 55T251 42Q300 42 338 65T403 126T443 210T457 302Q457 338 449 368T423 421T379 455T315 468Q262 468 223 445T159 383T121 297T108 200ZM39 210Q39 274 59 331T116 430T205 497T323 522Q372 522 409 507T473 462T512 393T526 303Q526 239 507 182T451 82T362 14T243 -12Q196 -12 158 5T94 51T53 121T39 210ZM316 722H392L467 578H423L351 680L243 578H199L316 722Z"  />
<glyph unicode="&#xF5;" horiz-adv-x="556" d="M108 200Q108 167 118 138T146 88T191 55T251 42Q300 42 338 65T403 126T443 210T457 302Q457 338 449 368T423 421T379 455T315 468Q262 468 223 445T159 383T121 297T108 200ZM39 210Q39 274 59 331T116 430T205 497T323 522Q372 522 409 507T473 462T512 393T526 303Q526 239 507 182T451 82T362 14T243 -12Q196 -12 158 5T94 51T53 121T39 210ZM470 693Q470 676 464 660T447 630T421 610T388 602Q373 602 359 607T331 617T304 626T276 631Q258 631 249 620T238 594H202Q202 611 208 627T225 656T251 677T284 685Q300 685 313 681T341 671T368 661T396 656Q414 656 423 666T434 693H470Z"  />
<glyph unicode="&#xF6;" horiz-adv-x="556" d="M108 200Q108 167 118 138T146 88T191 55T251 42Q300 42 338 65T403 126T443 210T457 302Q457 338 449 368T423 421T379 455T315 468Q262 468 223 445T159 383T121 297T108 200ZM39 210Q39 274 59 331T116 430T205 497T323 522Q372 522 409 507T473 462T512 393T526 303Q526 239 507 182T451 82T362 14T243 -12Q196 -12 158 5T94 51T53 121T39 210ZM408 730H485L469 646H392L408 730ZM233 730H310L294 646H217L233 730Z"  />
<glyph unicode="&#xF7;" horiz-adv-x="600" d="M251 57Q251 83 270 102T315 121Q341 121 360 102T379 57Q379 33 360 13T315 -7Q289 -7 270 12T251 57ZM251 450Q251 476 270 495T315 514Q341 514 360 495T379 450Q379 426 360 406T315 386Q289 386 270 405T251 450ZM61 288H568V219H61V288Z"  />
<glyph unicode="&#xF8;" horiz-adv-x="556" d="M546 498L489 440Q526 386 526 303Q526 239 507 182T451 82T362 14T243 -12Q158 -12 102 44L44 -15L18 8L79 71Q39 128 39 210Q39 274 59 331T116 430T205 497T323 522Q414 522 467 467L520 521L546 498ZM146 89Q163 67 190 55T251 42Q300 42 338 65T403 126T443 210T457 302Q457 327 453 349T441 390L146 89ZM422 421Q404 444 378 456T315 468Q262 468 223 445T159 383T121 297T108 200Q108 155 126 119L422 421Z"  />
<glyph unicode="&#xF9;" horiz-adv-x="556" d="M445 81Q440 55 438 37T433 0H370Q372 24 374 43T381 77H379Q353 36 309 12T217 -12Q148 -12 103 26T57 136Q57 162 62 189T72 241L129 510H195L137 229Q132 204 129 185T126 140Q126 95 151 69T224 42Q265 42 297 61T352 111T392 183T417 268L467 510H533L445 81ZM390 578H348L226 722H305L390 578Z"  />
<glyph unicode="&#xFA;" horiz-adv-x="556" d="M445 81Q440 55 438 37T433 0H370Q372 24 374 43T381 77H379Q353 36 309 12T217 -12Q148 -12 103 26T57 136Q57 162 62 189T72 241L129 510H195L137 229Q132 204 129 185T126 140Q126 95 151 69T224 42Q265 42 297 61T352 111T392 183T417 268L467 510H533L445 81ZM371 722H450L333 578H286L371 722Z"  />
<glyph unicode="&#xFB;" horiz-adv-x="556" d="M445 81Q440 55 438 37T433 0H370Q372 24 374 43T381 77H379Q353 36 309 12T217 -12Q148 -12 103 26T57 136Q57 162 62 189T72 241L129 510H195L137 229Q132 204 129 185T126 140Q126 95 151 69T224 42Q265 42 297 61T352 111T392 183T417 268L467 510H533L445 81ZM316 722H392L467 578H423L351 680L243 578H199L316 722Z"  />
<glyph unicode="&#xFC;" horiz-adv-x="556" d="M445 81Q440 55 438 37T433 0H370Q372 24 374 43T381 77H379Q353 36 309 12T217 -12Q148 -12 103 26T57 136Q57 162 62 189T72 241L129 510H195L137 229Q132 204 129 185T126 140Q126 95 151 69T224 42Q265 42 297 61T352 111T392 183T417 268L467 510H533L445 81ZM408 730H485L469 646H392L408 730ZM233 730H310L294 646H217L233 730Z"  />
<glyph unicode="&#xFD;" horiz-adv-x="444" d="M207 1L139 -120Q116 -164 85 -190T2 -216Q-15 -216 -30 -213T-59 -202L-44 -148Q-36 -156 -25 -159T-3 -162Q30 -162 55 -137T94 -82L137 -1L65 510H131L183 71H185L424 510H492L207 1ZM315 722H394L277 578H230L315 722Z"  />
<glyph unicode="&#xFE;" horiz-adv-x="556" d="M136 204Q136 174 143 145T166 93T206 56T264 42Q313 42 349 68T408 134T442 223T454 316Q454 347 447 375T425 423T387 456T330 468Q285 468 249 442T188 377T150 291T136 204ZM184 750H250L176 426H178Q206 473 251 497T348 522Q391 522 424 506T479 462T512 397T523 316Q523 257 507 198T458 93T377 17T264 -12Q210 -12 169 17T112 99H110L48 -210H-18L184 750Z"  />
<glyph unicode="&#xFF;" horiz-adv-x="444" d="M207 1L139 -120Q116 -164 85 -190T2 -216Q-15 -216 -30 -213T-59 -202L-44 -148Q-36 -156 -25 -159T-3 -162Q30 -162 55 -137T94 -82L137 -1L65 510H131L183 71H185L424 510H492L207 1ZM352 730H429L413 646H336L352 730ZM177 730H254L238 646H161L177 730Z"  />
<glyph unicode="&#x100;" horiz-adv-x="667" d="M391 698H473L609 0H539L504 187H147L32 0H-42L391 698ZM420 629L184 247H493L420 629ZM565 768H308L319 822H576L565 768Z"  />
<glyph unicode="&#x101;" horiz-adv-x="500" d="M84 132Q84 110 92 94T114 66T146 48T183 42Q227 42 259 60T314 108T350 176T369 255Q353 255 338 256T307 257Q275 257 236 253T164 237T107 199T84 132ZM409 121Q401 92 397 59T390 0H327Q329 20 331 39T337 75H335Q303 27 261 8T161 -12Q131 -12 105 -2T58 28T27 73T15 131Q15 187 43 222T114 277T209 304T308 311Q328 311 345 310T377 307Q380 329 380 358Q380 411 352 439T271 468Q226 468 186 453T120 424L127 488Q154 499 195 510T281 522Q364 522 406 479T449 356Q449 341 446 315T436 259L409 121ZM438 622H181L192 676H449L438 622Z"  />
<glyph unicode="&#x102;" horiz-adv-x="667" d="M391 698H473L609 0H539L504 187H147L32 0H-42L391 698ZM420 629L184 247H493L420 629ZM364 871Q372 840 396 828T451 815Q480 815 508 827T550 871H580Q575 846 563 825T533 789T493 764T445 755Q394 755 366 786T334 871H364Z"  />
<glyph unicode="&#x103;" horiz-adv-x="500" d="M84 132Q84 110 92 94T114 66T146 48T183 42Q227 42 259 60T314 108T350 176T369 255Q353 255 338 256T307 257Q275 257 236 253T164 237T107 199T84 132ZM409 121Q401 92 397 59T390 0H327Q329 20 331 39T337 75H335Q303 27 261 8T161 -12Q131 -12 105 -2T58 28T27 73T15 131Q15 187 43 222T114 277T209 304T308 311Q328 311 345 310T377 307Q380 329 380 358Q380 411 352 439T271 468Q226 468 186 453T120 424L127 488Q154 499 195 510T281 522Q364 522 406 479T449 356Q449 341 446 315T436 259L409 121ZM228 711Q228 679 249 662T301 644Q343 644 379 662T442 711H477Q463 689 446 667T408 626T361 596T308 584Q249 584 224 619T198 711H228Z"  />
<glyph unicode="&#x104;" horiz-adv-x="667" d="M590 -140Q572 -169 543 -184T475 -200Q441 -200 420 -184T398 -141Q398 -119 412 -99T449 -59T498 -25T541 0H539L504 187H147L32 0H-42L391 698H473L609 0H583Q572 -8 553 -20T513 -51T476 -90T461 -129Q461 -145 472 -154T499 -164Q520 -164 538 -156T575 -131L590 -140ZM420 629L184 247H493L420 629Z"  />
<glyph unicode="&#x105;" horiz-adv-x="500" d="M409 121Q401 92 397 59T390 0H374Q363 -8 344 -20T304 -51T267 -90T252 -129Q252 -145 263 -154T290 -164Q311 -164 329 -156T366 -131L381 -140Q363 -169 334 -184T266 -200Q232 -200 211 -184T189 -141Q189 -119 203 -99T240 -59T289 -25T332 0H327Q329 20 331 39T337 75H335Q303 27 261 8T161 -12Q131 -12 105 -2T58 28T27 73T15 131Q15 187 43 222T114 277T209 304T308 311Q328 311 345 310T377 307Q380 329 380 358Q380 411 352 439T271 468Q226 468 186 453T120 424L127 488Q154 499 195 510T281 522Q364 522 406 479T449 356Q449 341 446 315T436 259L409 121ZM84 132Q84 110 92 94T114 66T146 48T183 42Q227 42 259 60T314 108T350 176T369 255Q353 255 338 256T307 257Q275 257 236 253T164 237T107 199T84 132Z"  />
<glyph unicode="&#x106;" horiz-adv-x="611" d="M653 616Q615 636 573 643T485 650Q409 650 346 623T238 547T168 434T143 293Q143 242 162 198T215 120T295 67T397 48Q430 48 451 50T489 55T518 63T546 71L538 10Q517 4 487 -4T402 -12Q335 -12 276 9T171 70T100 166T74 294Q74 385 105 461T191 593T322 679T489 710Q546 710 589 702T677 674L653 616ZM536 882H615L498 738H451L536 882Z"  />
<glyph unicode="&#x107;" horiz-adv-x="444" d="M449 445Q442 449 428 453T398 460T364 466T331 468Q277 468 235 450T165 398T123 321T108 226Q108 187 120 153T155 95T207 56T273 42Q302 42 329 50T381 66L373 3Q355 -3 326 -7T257 -12Q202 -12 161 9T93 63T53 138T39 221Q39 288 58 343T114 439T208 500T338 522Q354 522 372 521T408 516T441 510T467 502L449 445ZM363 722H442L325 578H278L363 722Z"  />
<glyph unicode="&#x108;" horiz-adv-x="611" d="M653 616Q615 636 573 643T485 650Q409 650 346 623T238 547T168 434T143 293Q143 242 162 198T215 120T295 67T397 48Q430 48 451 50T489 55T518 63T546 71L538 10Q517 4 487 -4T402 -12Q335 -12 276 9T171 70T100 166T74 294Q74 385 105 461T191 593T322 679T489 710Q546 710 589 702T677 674L653 616ZM466 882H542L617 738H573L501 840L393 738H349L466 882Z"  />
<glyph unicode="&#x109;" horiz-adv-x="444" d="M449 445Q442 449 428 453T398 460T364 466T331 468Q277 468 235 450T165 398T123 321T108 226Q108 187 120 153T155 95T207 56T273 42Q302 42 329 50T381 66L373 3Q355 -3 326 -7T257 -12Q202 -12 161 9T93 63T53 138T39 221Q39 288 58 343T114 439T208 500T338 522Q354 522 372 521T408 516T441 510T467 502L449 445ZM300 722H376L451 578H407L335 680L227 578H183L300 722Z"  />
<glyph unicode="&#x10A;" horiz-adv-x="611" d="M653 616Q615 636 573 643T485 650Q409 650 346 623T238 547T168 434T143 293Q143 242 162 198T215 120T295 67T397 48Q430 48 451 50T489 55T518 63T546 71L538 10Q517 4 487 -4T402 -12Q335 -12 276 9T171 70T100 166T74 294Q74 385 105 461T191 593T322 679T489 710Q546 710 589 702T677 674L653 616ZM469 842H546L530 758H453L469 842Z"  />
<glyph unicode="&#x10B;" horiz-adv-x="444" d="M449 445Q442 449 428 453T398 460T364 466T331 468Q277 468 235 450T165 398T123 321T108 226Q108 187 120 153T155 95T207 56T273 42Q302 42 329 50T381 66L373 3Q355 -3 326 -7T257 -12Q202 -12 161 9T93 63T53 138T39 221Q39 288 58 343T114 439T208 500T338 522Q354 522 372 521T408 516T441 510T467 502L449 445ZM304 730H381L365 646H288L304 730Z"  />
<glyph unicode="&#x10C;" horiz-adv-x="611" d="M653 616Q615 636 573 643T485 650Q409 650 346 623T238 547T168 434T143 293Q143 242 162 198T215 120T295 67T397 48Q430 48 451 50T489 55T518 63T546 71L538 10Q517 4 487 -4T402 -12Q335 -12 276 9T171 70T100 166T74 294Q74 385 105 461T191 593T322 679T489 710Q546 710 589 702T677 674L653 616ZM524 738H448L373 882H417L489 780L597 882H641L524 738Z"  />
<glyph unicode="&#x10D;" horiz-adv-x="444" d="M449 445Q442 449 428 453T398 460T364 466T331 468Q277 468 235 450T165 398T123 321T108 226Q108 187 120 153T155 95T207 56T273 42Q302 42 329 50T381 66L373 3Q355 -3 326 -7T257 -12Q202 -12 161 9T93 63T53 138T39 221Q39 288 58 343T114 439T208 500T338 522Q354 522 372 521T408 516T441 510T467 502L449 445ZM352 578H276L201 722H245L317 620L425 722H469L352 578Z"  />
<glyph unicode="&#x10E;" horiz-adv-x="667" d="M185 698H256H309Q379 698 441 684T549 638T621 551T648 418Q648 325 622 248T544 116T419 31T248 0H106H37L185 698ZM119 60H242Q321 60 383 84T489 154T556 266T579 418Q579 476 561 518T511 586T432 625T330 638H243L119 60ZM415 738H339L264 882H308L380 780L488 882H532L415 738Z"  />
<glyph unicode="&#x10F;" horiz-adv-x="604" d="M108 194Q108 162 115 135T137 87T176 54T233 42Q276 42 312 67T374 132T414 217T429 306Q429 340 421 369T397 421T357 455T299 468Q250 468 214 442T155 376T120 287T108 194ZM454 100Q440 36 437 0H372Q374 21 378 43T388 81H386Q358 39 318 14T212 -12Q166 -12 133 6T79 54T49 123T39 206Q39 259 56 315T105 417T185 492T294 522Q350 522 393 496T450 416H452L522 750H588L454 100ZM659 709H720L651 545H606L659 709Z"  />
<glyph unicode="&#x110;" horiz-adv-x="667" d="M190 389H384L370 329H177L119 60H242Q321 60 383 84T489 154T556 266T579 418Q579 476 561 518T511 586T432 625T330 638H243L190 389ZM107 329H40L52 389H120L185 698H256H309Q379 698 441 684T549 638T621 551T648 418Q648 325 622 248T544 116T419 31T248 0H106H37L107 329Z"  />
<glyph unicode="&#x111;" horiz-adv-x="564" d="M502 658L522 750H588L569 658H644L635 612H559L454 100Q440 36 437 0H372Q374 21 378 43T388 81H386Q358 39 318 14T212 -12Q166 -12 133 6T79 54T49 123T39 206Q39 259 56 315T105 417T185 492T294 522Q350 522 393 496T450 416H452L493 612H328L337 658H502ZM108 194Q108 162 115 135T137 87T176 54T233 42Q276 42 312 67T374 132T414 217T429 306Q429 340 421 369T397 421T357 455T299 468Q250 468 214 442T155 376T120 287T108 194Z"  />
<glyph unicode="&#x112;" horiz-adv-x="500" d="M181 698H253H525L514 638H237L186 389H447L436 329H174L118 60H405L395 0H102H37L181 698ZM488 768H231L242 822H499L488 768Z"  />
<glyph unicode="&#x113;" horiz-adv-x="500" d="M417 291Q418 302 419 311T420 330Q420 393 393 430T303 468Q266 468 235 454T179 415T139 358T116 291H417ZM105 237Q102 217 102 196Q102 122 145 82T257 42Q305 42 340 52T406 76L401 15Q390 11 377 6T345 -3T304 -9T249 -12Q204 -12 166 1T100 40T55 106T39 196Q39 260 57 319T109 423T192 495T303 522Q393 522 438 471T483 332Q483 309 481 285T476 237H105ZM441 622H184L195 676H452L441 622Z"  />
<glyph unicode="&#x114;" horiz-adv-x="500" d="M181 698H253H525L514 638H237L186 389H447L436 329H174L118 60H405L395 0H102H37L181 698ZM275 871Q283 840 307 828T362 815Q391 815 419 827T461 871H491Q486 846 474 825T444 789T404 764T356 755Q305 755 277 786T245 871H275Z"  />
<glyph unicode="&#x115;" horiz-adv-x="500" d="M417 291Q418 302 419 311T420 330Q420 393 393 430T303 468Q266 468 235 454T179 415T139 358T116 291H417ZM105 237Q102 217 102 196Q102 122 145 82T257 42Q305 42 340 52T406 76L401 15Q390 11 377 6T345 -3T304 -9T249 -12Q204 -12 166 1T100 40T55 106T39 196Q39 260 57 319T109 423T192 495T303 522Q393 522 438 471T483 332Q483 309 481 285T476 237H105ZM232 711Q232 679 253 662T305 644Q347 644 383 662T446 711H481Q467 689 450 667T412 626T365 596T312 584Q253 584 228 619T202 711H232Z"  />
<glyph unicode="&#x116;" horiz-adv-x="500" d="M181 698H253H525L514 638H237L186 389H447L436 329H174L118 60H405L395 0H102H37L181 698ZM335 842H412L396 758H319L335 842Z"  />
<glyph unicode="&#x117;" horiz-adv-x="500" d="M417 291Q418 302 419 311T420 330Q420 393 393 430T303 468Q266 468 235 454T179 415T139 358T116 291H417ZM105 237Q102 217 102 196Q102 122 145 82T257 42Q305 42 340 52T406 76L401 15Q390 11 377 6T345 -3T304 -9T249 -12Q204 -12 166 1T100 40T55 106T39 196Q39 260 57 319T109 423T192 495T303 522Q393 522 438 471T483 332Q483 309 481 285T476 237H105ZM289 730H366L350 646H273L289 730Z"  />
<glyph unicode="&#x118;" horiz-adv-x="500" d="M181 698H250H525L514 638H237L186 389H447L436 329H174L118 60H405L395 0H352Q341 -8 322 -20T282 -51T245 -90T230 -129Q230 -145 241 -154T268 -164Q289 -164 307 -156T344 -131L359 -140Q341 -169 312 -184T244 -200Q210 -200 189 -184T167 -141Q167 -119 181 -99T218 -59T267 -25T310 0H102H37L181 698Z"  />
<glyph unicode="&#x119;" horiz-adv-x="500" d="M105 237Q102 217 102 196Q102 122 145 82T257 42Q305 42 340 52T406 76L401 15Q390 11 377 6T345 -3T303 -9Q289 -11 273 -11Q267 -16 260 -20Q241 -33 220 -51T183 -90T168 -129Q168 -145 179 -154T206 -164Q227 -164 245 -156T282 -131L297 -140Q279 -169 250 -184T182 -200Q148 -200 127 -184T105 -141Q105 -119 119 -99T156 -59T205 -25Q217 -17 227 -11Q195 -9 166 1Q128 14 100 40T55 106T39 196Q39 260 57 319T109 423T192 495T303 522Q393 522 438 471T483 332Q483 309 481 285T476 237H105ZM417 291Q418 302 419 311T420 330Q420 393 393 430T303 468Q266 468 235 454T179 415T139 358T116 291H417Z"  />
<glyph unicode="&#x11A;" horiz-adv-x="500" d="M181 698H253H525L514 638H237L186 389H447L436 329H174L118 60H405L395 0H102H37L181 698ZM395 738H319L244 882H288L360 780L468 882H512L395 738Z"  />
<glyph unicode="&#x11B;" horiz-adv-x="500" d="M417 291Q418 302 419 311T420 330Q420 393 393 430T303 468Q266 468 235 454T179 415T139 358T116 291H417ZM105 237Q102 217 102 196Q102 122 145 82T257 42Q305 42 340 52T406 76L401 15Q390 11 377 6T345 -3T304 -9T249 -12Q204 -12 166 1T100 40T55 106T39 196Q39 260 57 319T109 423T192 495T303 522Q393 522 438 471T483 332Q483 309 481 285T476 237H105ZM351 578H275L200 722H244L316 620L424 722H468L351 578Z"  />
<glyph unicode="&#x11C;" horiz-adv-x="722" d="M682 610Q639 632 591 641T495 650Q420 650 356 625T246 555T174 446T148 305Q148 251 166 204T217 123T295 68T394 48Q449 48 481 58T530 77L579 318H412L426 378H593H663L601 78L590 23Q580 20 565 15T532 4T477 -6T399 -12Q326 -12 267 11T166 77T102 179T79 313Q79 401 111 474T198 599T327 681T487 710Q540 710 593 703T701 675L682 610ZM462 882H538L613 738H569L497 840L389 738H345L462 882Z"  />
<glyph unicode="&#x11D;" horiz-adv-x="556" d="M103 208Q103 176 111 148T135 99T178 66T239 54Q287 54 323 77T383 136T419 217T431 306Q431 340 423 369T397 421T354 455T293 468Q246 468 211 443T151 380T115 296T103 208ZM10 -118Q48 -143 86 -152T166 -162Q221 -162 257 -149T317 -111T355 -48T381 37L389 74H387Q320 0 216 0Q171 0 137 17T80 62T46 129T34 208Q34 268 50 325T100 425T181 495T294 522Q324 522 351 516T400 495T437 459T459 406H461Q470 458 485 510H548Q544 494 538 467T524 406L448 55Q434 -11 417 -62T370 -147T292 -198T166 -216Q121 -216 80 -209T-7 -182L10 -118ZM303 722H379L454 578H410L338 680L230 578H186L303 722Z"  />
<glyph unicode="&#x11E;" horiz-adv-x="722" d="M682 610Q639 632 591 641T495 650Q420 650 356 625T246 555T174 446T148 305Q148 251 166 204T217 123T295 68T394 48Q449 48 481 58T530 77L579 318H412L426 378H593H663L601 78L590 23Q580 20 565 15T532 4T477 -6T399 -12Q326 -12 267 11T166 77T102 179T79 313Q79 401 111 474T198 599T327 681T487 710Q540 710 593 703T701 675L682 610ZM405 871Q413 840 437 828T492 815Q521 815 549 827T591 871H621Q616 846 604 825T574 789T534 764T486 755Q435 755 407 786T375 871H405Z"  />
<glyph unicode="&#x11F;" horiz-adv-x="556" d="M103 208Q103 176 111 148T135 99T178 66T239 54Q287 54 323 77T383 136T419 217T431 306Q431 340 423 369T397 421T354 455T293 468Q246 468 211 443T151 380T115 296T103 208ZM10 -118Q48 -143 86 -152T166 -162Q221 -162 257 -149T317 -111T355 -48T381 37L389 74H387Q320 0 216 0Q171 0 137 17T80 62T46 129T34 208Q34 268 50 325T100 425T181 495T294 522Q324 522 351 516T400 495T437 459T459 406H461Q470 458 485 510H548Q544 494 538 467T524 406L448 55Q434 -11 417 -62T370 -147T292 -198T166 -216Q121 -216 80 -209T-7 -182L10 -118ZM235 711Q235 679 256 662T308 644Q350 644 386 662T449 711H484Q470 689 453 667T415 626T368 596T315 584Q256 584 231 619T205 711H235Z"  />
<glyph unicode="&#x120;" horiz-adv-x="722" d="M682 610Q639 632 591 641T495 650Q420 650 356 625T246 555T174 446T148 305Q148 251 166 204T217 123T295 68T394 48Q449 48 481 58T530 77L579 318H412L426 378H593H663L601 78L590 23Q580 20 565 15T532 4T477 -6T399 -12Q326 -12 267 11T166 77T102 179T79 313Q79 401 111 474T198 599T327 681T487 710Q540 710 593 703T701 675L682 610ZM462 842H539L523 758H446L462 842Z"  />
<glyph unicode="&#x121;" horiz-adv-x="556" d="M103 208Q103 176 111 148T135 99T178 66T239 54Q287 54 323 77T383 136T419 217T431 306Q431 340 423 369T397 421T354 455T293 468Q246 468 211 443T151 380T115 296T103 208ZM10 -118Q48 -143 86 -152T166 -162Q221 -162 257 -149T317 -111T355 -48T381 37L389 74H387Q320 0 216 0Q171 0 137 17T80 62T46 129T34 208Q34 268 50 325T100 425T181 495T294 522Q324 522 351 516T400 495T437 459T459 406H461Q470 458 485 510H548Q544 494 538 467T524 406L448 55Q434 -11 417 -62T370 -147T292 -198T166 -216Q121 -216 80 -209T-7 -182L10 -118ZM300 730H377L361 646H284L300 730Z"  />
<glyph unicode="&#x122;" horiz-adv-x="722" d="M682 610Q639 632 591 641T495 650Q420 650 356 625T246 555T174 446T148 305Q148 251 166 204T217 123T295 68T394 48Q449 48 481 58T530 77L579 318H412L426 378H593H663L601 78L590 23Q580 20 565 15T532 4T477 -6T399 -12Q326 -12 267 11T166 77T102 179T79 313Q79 401 111 474T198 599T327 681T487 710Q540 710 593 703T701 675L682 610ZM320 -73H394L316 -217H259L320 -73Z"  />
<glyph unicode="&#x123;" horiz-adv-x="556" d="M103 208Q103 176 111 148T135 99T178 66T239 54Q287 54 323 77T383 136T419 217T431 306Q431 340 423 369T397 421T354 455T293 468Q246 468 211 443T151 380T115 296T103 208ZM10 -118Q48 -143 86 -152T166 -162Q221 -162 257 -149T317 -111T355 -48T381 37L389 74H387Q320 0 216 0Q171 0 137 17T80 62T46 129T34 208Q34 268 50 325T100 425T181 495T294 522Q324 522 351 516T400 495T437 459T459 406H461Q470 458 485 510H548Q544 494 538 467T524 406L448 55Q434 -11 417 -62T370 -147T292 -198T166 -216Q121 -216 80 -209T-7 -182L10 -118ZM346 572H275L353 716H407L346 572Z"  />
<glyph unicode="&#x124;" horiz-adv-x="667" d="M185 698H253L188 389H545L611 698H679L529 0H461L532 329H175L105 0H37L185 698ZM419 882H495L570 738H526L454 840L346 738H302L419 882Z"  />
<glyph unicode="&#x125;" horiz-adv-x="556" d="M189 750H255L179 427H181Q208 472 245 495T344 522Q413 522 458 484T504 374Q504 348 500 322T489 269L432 0H366L424 281Q429 306 432 325T435 370Q435 415 410 441T337 468Q296 468 265 449T211 400T173 330T149 250L94 0H28L189 750ZM358 939H434L509 795H465L393 897L285 795H241L358 939Z"  />
<glyph unicode="&#x126;" horiz-adv-x="667" d="M187 698H256L218 521H571L609 698H678L530 0H461L525 304H172L108 0H39L187 698ZM537 362L560 470H207L184 362H537Z"  />
<glyph unicode="&#x127;" horiz-adv-x="556" d="M159 612H85L94 658H169L189 750H255L233 658H404L395 612H222L179 427H181Q208 472 245 495T344 522Q413 522 458 484T504 374Q504 348 500 322T489 269L432 0H366L424 281Q429 306 432 325T435 370Q435 415 410 441T337 468Q296 468 265 449T211 400T173 330T149 250L94 0H28L159 612Z"  />
<glyph unicode="&#x128;" horiz-adv-x="222" d="M176 698H245L97 0H28L176 698ZM357 854Q357 837 351 821T334 791T308 771T275 763Q260 763 246 768T218 778T191 787T163 792Q145 792 136 781T125 755H89Q89 772 95 788T112 817T138 838T171 846Q187 846 200 842T228 832T255 822T283 817Q301 817 310 827T321 854H357Z"  />
<glyph unicode="&#x129;" horiz-adv-x="222" d="M136 510H202L94 0H28L136 510ZM321 693Q321 676 315 660T298 630T272 610T239 602Q224 602 210 607T182 617T155 626T127 631Q109 631 100 620T89 594H53Q53 611 59 627T76 656T102 677T135 685Q151 685 164 681T192 671T219 661T247 656Q265 656 274 666T285 693H321Z"  />
<glyph unicode="&#x12A;" horiz-adv-x="222" d="M176 698H245L97 0H28L176 698ZM351 768H94L105 822H362L351 768Z"  />
<glyph unicode="&#x12B;" horiz-adv-x="222" d="M136 510H202L94 0H28L136 510ZM313 622H56L67 676H324L313 622Z"  />
<glyph unicode="&#x12E;" horiz-adv-x="222" d="M176 698H245L97 0Q86 -8 67 -20T27 -51T-10 -90T-25 -129Q-25 -145 -14 -154T13 -164Q34 -164 52 -156T89 -131L104 -140Q86 -169 57 -184T-11 -200Q-45 -200 -66 -184T-88 -141Q-88 -119 -74 -99T-37 -59T12 -25T55 0H28L176 698Z"  />
<glyph unicode="&#x12F;" horiz-adv-x="222" d="M136 510H202L94 0Q83 -8 64 -20T24 -51T-13 -90T-28 -129Q-28 -145 -17 -154T10 -164Q31 -164 49 -156T86 -131L101 -140Q83 -169 54 -184T-14 -200Q-48 -200 -69 -184T-91 -141Q-91 -119 -77 -99T-40 -59T9 -25T52 0H28L136 510ZM235 646H160L178 730H253L235 646Z"  />
<glyph unicode="&#x130;" horiz-adv-x="222" d="M176 698H245L97 0H28L176 698ZM201 842H278L262 758H185L201 842Z"  />
<glyph unicode="&#x131;" horiz-adv-x="222" d="M136 510H202L94 0H28L136 510Z"  />
<glyph unicode="&#x132;" horiz-adv-x="530" d="M176 698H245L97 0H28L176 698ZM177 63Q193 56 209 52T243 48Q282 48 306 67T345 116T368 179T382 242L478 698H547L445 230Q435 184 423 141T390 63T335 9T247 -12Q226 -12 202 -10T162 0L177 63Z"  />
<glyph unicode="&#x133;" horiz-adv-x="433" d="M235 646H160L178 730H253L235 646ZM136 510H202L94 0H28L136 510ZM445 646H370L388 730H463L445 646ZM296 -60Q290 -87 282 -115T258 -165T218 -202T156 -216Q139 -216 124 -213T92 -207L109 -150Q117 -154 126 -155T144 -156Q164 -156 179 -147T204 -124T221 -94T230 -62L347 510H413L296 -60Z"  />
<glyph unicode="&#x134;" horiz-adv-x="333" d="M-20 63Q-4 56 12 52T46 48Q85 48 109 67T148 116T171 179T185 242L281 698H350L248 230Q238 184 226 141T193 63T138 9T50 -12Q29 -12 5 -10T-35 0L-20 63ZM297 882H373L448 738H404L332 840L224 738H180L297 882Z"  />
<glyph unicode="&#x135;" horiz-adv-x="222" d="M84 -60Q78 -87 70 -115T46 -165T6 -202T-56 -216Q-73 -216 -88 -213T-120 -207L-103 -150Q-95 -154 -86 -155T-68 -156Q-48 -156 -33 -147T-8 -124T9 -94T18 -62L135 510H201L84 -60ZM153 722H229L304 578H260L188 680L80 578H36L153 722Z"  />
<glyph unicode="&#x136;" horiz-adv-x="611" d="M196 698H264L199 394H201L569 698H669L258 367L554 0H468L189 349L117 0H47L196 698ZM234 -73H308L230 -217H173L234 -73Z"  />
<glyph unicode="&#x137;" horiz-adv-x="500" d="M192 750H254L158 304H160L425 510H519L212 284L439 0H357L150 262L94 0H28L192 750ZM179 -73H253L175 -217H118L179 -73Z"  />
<glyph unicode="&#x139;" horiz-adv-x="444" d="M177 698H248L111 60H396L385 0H98H28L177 698ZM277 882H356L239 738H192L277 882Z"  />
<glyph unicode="&#x13A;" horiz-adv-x="222" d="M188 750H254L94 0H28L188 750ZM266 927H345L228 783H181L266 927Z"  />
<glyph unicode="&#x13B;" horiz-adv-x="444" d="M177 698H248L111 60H396L385 0H98H28L177 698ZM156 -73H230L152 -217H95L156 -73Z"  />
<glyph unicode="&#x13C;" horiz-adv-x="222" d="M188 750H254L94 0H28L188 750ZM8 -73H82L4 -217H-53L8 -73Z"  />
<glyph unicode="&#x13D;" horiz-adv-x="444" d="M177 698H248L111 60H396L385 0H98H28L177 698ZM350 709H411L342 545H297L350 709Z"  />
<glyph unicode="&#x13E;" horiz-adv-x="270" d="M188 750H254L94 0H28L188 750ZM325 709H386L317 545H272L325 709Z"  />
<glyph unicode="&#x13F;" horiz-adv-x="444" d="M177 698H248L111 60H396L385 0H98H28L177 698ZM279 444H356L340 360H263L279 444Z"  />
<glyph unicode="&#x140;" horiz-adv-x="342" d="M188 750H254L94 0H28L188 750ZM262 444H339L323 360H246L262 444Z"  />
<glyph unicode="&#x141;" horiz-adv-x="444" d="M79 237L9 194L26 266L94 308L177 698H248L175 358L362 473L345 401L160 287L111 60H396L385 0H95H28L79 237Z"  />
<glyph unicode="&#x142;" horiz-adv-x="222" d="M99 333L27 289L41 356L113 399L188 750H254L190 449L262 496L248 430L176 383L94 0H28L99 333Z"  />
<glyph unicode="&#x143;" horiz-adv-x="667" d="M179 698H246H261L494 84H496L626 698H689L541 0H474H459L226 614H224L92 0H28L179 698ZM491 882H570L453 738H406L491 882Z"  />
<glyph unicode="&#x144;" horiz-adv-x="556" d="M116 429Q121 455 123 473T128 510H191Q189 486 187 467T180 433H182Q208 474 252 498T344 522Q413 522 458 484T504 374Q504 348 499 321T489 269L432 0H366L424 281Q429 306 432 325T435 370Q435 415 410 441T337 468Q296 468 264 449T209 399T169 327T144 242L94 0H28L116 429ZM386 722H465L348 578H301L386 722Z"  />
<glyph unicode="&#x145;" horiz-adv-x="667" d="M179 698H246H261L494 84H496L626 698H689L541 0H474H459L226 614H224L92 0H28L179 698ZM250 -73H324L246 -217H189L250 -73Z"  />
<glyph unicode="&#x146;" horiz-adv-x="556" d="M116 429Q121 455 123 473T128 510H191Q189 486 187 467T180 433H182Q208 474 252 498T344 522Q413 522 458 484T504 374Q504 348 499 321T489 269L432 0H366L424 281Q429 306 432 325T435 370Q435 415 410 441T337 468Q296 468 264 449T209 399T169 327T144 242L94 0H28L116 429ZM191 -73H265L187 -217H130L191 -73Z"  />
<glyph unicode="&#x147;" horiz-adv-x="667" d="M179 698H246H261L494 84H496L626 698H689L541 0H474H459L226 614H224L92 0H28L179 698ZM480 738H404L329 882H373L445 780L553 882H597L480 738Z"  />
<glyph unicode="&#x148;" horiz-adv-x="556" d="M116 429Q121 455 123 473T128 510H191Q189 486 187 467T180 433H182Q208 474 252 498T344 522Q413 522 458 484T504 374Q504 348 499 321T489 269L432 0H366L424 281Q429 306 432 325T435 370Q435 415 410 441T337 468Q296 468 264 449T209 399T169 327T144 242L94 0H28L116 429ZM383 578H307L232 722H276L348 620L456 722H500L383 578Z"  />
<glyph unicode="&#x149;" horiz-adv-x="616" d="M176 429Q181 455 183 473T188 510H251Q249 486 247 467T240 433H242Q268 474 312 498T404 522Q473 522 518 484T564 374Q564 348 559 321T549 269L492 0H426L484 281Q489 306 492 325T495 370Q495 415 470 441T397 468Q356 468 324 449T269 399T229 327T204 242L154 0H88L176 429ZM138 698H218L97 480H36L138 698Z"  />
<glyph unicode="&#x14C;" horiz-adv-x="722" d="M136 279Q136 230 148 188T184 115T246 66T333 48Q403 48 458 82T553 169T612 288T633 419Q633 468 621 510T585 583T523 632T436 650Q366 650 311 616T216 529T157 410T136 279ZM67 273Q67 356 92 434T165 574T282 673T438 710Q502 710 551 690T634 632T685 542T702 425Q702 342 677 264T604 124T487 25T331 -12Q266 -12 217 8T135 66T84 156T67 273ZM589 768H332L343 822H600L589 768Z"  />
<glyph unicode="&#x14D;" horiz-adv-x="556" d="M108 200Q108 167 118 138T146 88T191 55T251 42Q300 42 338 65T403 126T443 210T457 302Q457 338 449 368T423 421T379 455T315 468Q262 468 223 445T159 383T121 297T108 200ZM39 210Q39 274 59 331T116 430T205 497T323 522Q372 522 409 507T473 462T512 393T526 303Q526 239 507 182T451 82T362 14T243 -12Q196 -12 158 5T94 51T53 121T39 210ZM471 622H214L225 676H482L471 622Z"  />
<glyph unicode="&#x14E;" horiz-adv-x="722" d="M136 279Q136 230 148 188T184 115T246 66T333 48Q403 48 458 82T553 169T612 288T633 419Q633 468 621 510T585 583T523 632T436 650Q366 650 311 616T216 529T157 410T136 279ZM67 273Q67 356 92 434T165 574T282 673T438 710Q502 710 551 690T634 632T685 542T702 425Q702 342 677 264T604 124T487 25T331 -12Q266 -12 217 8T135 66T84 156T67 273ZM379 871Q387 840 411 828T466 815Q495 815 523 827T565 871H595Q590 846 578 825T548 789T508 764T460 755Q409 755 381 786T349 871H379Z"  />
<glyph unicode="&#x14F;" horiz-adv-x="556" d="M108 200Q108 167 118 138T146 88T191 55T251 42Q300 42 338 65T403 126T443 210T457 302Q457 338 449 368T423 421T379 455T315 468Q262 468 223 445T159 383T121 297T108 200ZM39 210Q39 274 59 331T116 430T205 497T323 522Q372 522 409 507T473 462T512 393T526 303Q526 239 507 182T451 82T362 14T243 -12Q196 -12 158 5T94 51T53 121T39 210ZM255 711Q255 679 276 662T328 644Q370 644 406 662T469 711H504Q490 689 473 667T435 626T388 596T335 584Q276 584 251 619T225 711H255Z"  />
<glyph unicode="&#x150;" horiz-adv-x="722" d="M136 279Q136 230 148 188T184 115T246 66T333 48Q403 48 458 82T553 169T612 288T633 419Q633 468 621 510T585 583T523 632T436 650Q366 650 311 616T216 529T157 410T136 279ZM67 273Q67 356 92 434T165 574T282 673T438 710Q502 710 551 690T634 632T685 542T702 425Q702 342 677 264T604 124T487 25T331 -12Q266 -12 217 8T135 66T84 156T67 273ZM562 882H641L524 738H477L562 882ZM424 882H503L386 738H339L424 882Z"  />
<glyph unicode="&#x151;" horiz-adv-x="556" d="M108 200Q108 167 118 138T146 88T191 55T251 42Q300 42 338 65T403 126T443 210T457 302Q457 338 449 368T423 421T379 455T315 468Q262 468 223 445T159 383T121 297T108 200ZM39 210Q39 274 59 331T116 430T205 497T323 522Q372 522 409 507T473 462T512 393T526 303Q526 239 507 182T451 82T362 14T243 -12Q196 -12 158 5T94 51T53 121T39 210ZM439 722H518L401 578H354L439 722ZM301 722H380L263 578H216L301 722Z"  />
<glyph unicode="&#x152;" horiz-adv-x="889" d="M902 638H624L572 389H834L820 329H560L501 60H788L776 0H488H449Q434 0 419 -2Q385 -7 363 -7Q292 -7 237 15T144 77T87 173T67 299Q67 386 95 460T174 589T298 674T460 705Q485 705 509 702T558 698H570H637H914L902 638ZM556 633Q533 637 511 641T466 645Q391 645 331 620T227 550T160 443T136 307Q136 257 149 211T189 130T256 74T351 53Q371 53 391 55T432 63L556 633Z"  />
<glyph unicode="&#x153;" horiz-adv-x="833" d="M104 207Q104 176 112 147T136 94T177 56T236 42Q284 42 318 69T375 135T408 220T419 302Q419 335 412 365T390 418T353 454T302 468Q247 468 210 445T149 384T115 300T104 207ZM748 291Q751 319 751 344Q751 369 747 391T732 431T703 458T655 468Q620 468 593 453T545 413T510 357T489 291H748ZM479 237Q477 229 477 219T476 199Q476 130 508 86T611 42Q644 42 676 50T737 72L731 11Q701 2 671 -5T608 -12Q539 -12 492 16T424 112H422Q397 59 350 24T236 -12Q188 -12 151 5T88 53T49 123T35 210Q35 268 52 324T102 424T184 495T298 522Q361 522 406 490T468 399H470Q495 455 542 488T655 522Q740 522 777 474T814 345Q814 310 812 286T807 237H479Z"  />
<glyph unicode="&#x154;" horiz-adv-x="556" d="M190 389H263Q298 389 334 395T401 418T450 463T470 533Q470 563 461 583T434 615T394 632T344 638H243L190 389ZM189 698H259H347Q389 699 424 692T484 666T524 618T539 542Q539 499 524 466T482 408T419 371T342 355V353Q364 349 377 341T397 321T409 296T417 268L483 0H415L354 259Q342 300 321 314T258 329H177L107 0H37L189 698ZM396 882H475L358 738H311L396 882Z"  />
<glyph unicode="&#x155;" horiz-adv-x="333" d="M114 419Q119 441 122 463T128 510H191Q189 486 187 467T180 433H182Q206 471 240 496T324 522Q340 522 353 520T379 515L364 448Q351 453 338 454T310 456Q271 456 244 437T197 388T166 322T147 251L95 0H28L114 419ZM312 722H391L274 578H227L312 722Z"  />
<glyph unicode="&#x156;" horiz-adv-x="556" d="M190 389H263Q298 389 334 395T401 418T450 463T470 533Q470 563 461 583T434 615T394 632T344 638H243L190 389ZM189 698H259H347Q389 699 424 692T484 666T524 618T539 542Q539 499 524 466T482 408T419 371T342 355V353Q364 349 377 341T397 321T409 296T417 268L483 0H415L354 259Q342 300 321 314T258 329H177L107 0H37L189 698ZM198 -73H272L194 -217H137L198 -73Z"  />
<glyph unicode="&#x157;" horiz-adv-x="333" d="M114 419Q119 441 122 463T128 510H191Q189 486 187 467T180 433H182Q206 471 240 496T324 522Q340 522 353 520T379 515L364 448Q351 453 338 454T310 456Q271 456 244 437T197 388T166 322T147 251L95 0H28L114 419ZM11 -73H85L7 -217H-50L11 -73Z"  />
<glyph unicode="&#x158;" horiz-adv-x="556" d="M190 389H263Q298 389 334 395T401 418T450 463T470 533Q470 563 461 583T434 615T394 632T344 638H243L190 389ZM189 698H259H347Q389 699 424 692T484 666T524 618T539 542Q539 499 524 466T482 408T419 371T342 355V353Q364 349 377 341T397 321T409 296T417 268L483 0H415L354 259Q342 300 321 314T258 329H177L107 0H37L189 698ZM393 738H317L242 882H286L358 780L466 882H510L393 738Z"  />
<glyph unicode="&#x159;" horiz-adv-x="333" d="M114 419Q119 441 122 463T128 510H191Q189 486 187 467T180 433H182Q206 471 240 496T324 522Q340 522 353 520T379 515L364 448Q351 453 338 454T310 456Q271 456 244 437T197 388T166 322T147 251L95 0H28L114 419ZM305 578H229L154 722H198L270 620L378 722H422L305 578Z"  />
<glyph unicode="&#x15A;" horiz-adv-x="500" d="M498 616Q432 650 357 650Q328 650 299 643T245 621T206 580T190 520Q190 490 209 468T256 425T318 385T380 341T428 284T447 206Q447 153 425 112T366 44T284 2T190 -12Q121 -12 79 0T14 26L35 92Q66 71 106 60T184 48Q219 48 254 56T316 82T361 128T378 197Q378 233 359 259T312 308T250 350T188 393T140 445T121 515Q121 566 140 603T193 663T268 698T357 710Q447 710 519 679L498 616ZM401 882H480L363 738H316L401 882Z"  />
<glyph unicode="&#x15B;" horiz-adv-x="389" d="M5 79Q32 62 63 52T126 42Q149 42 174 47T221 63T256 94T270 144Q270 172 255 191T218 225T170 255T121 286T84 325T69 380Q69 418 87 445T132 489T193 514T258 522Q327 522 389 497L368 438Q343 452 314 460T255 468Q236 468 215 465T176 451T147 425T135 381Q135 359 150 343T188 312T237 283T286 249T324 206T339 148Q339 104 321 74T274 25T208 -3T134 -12Q94 -12 59 -6T-14 16L5 79ZM304 722H383L266 578H219L304 722Z"  />
<glyph unicode="&#x15C;" horiz-adv-x="500" d="M498 616Q432 650 357 650Q328 650 299 643T245 621T206 580T190 520Q190 490 209 468T256 425T318 385T380 341T428 284T447 206Q447 153 425 112T366 44T284 2T190 -12Q121 -12 79 0T14 26L35 92Q66 71 106 60T184 48Q219 48 254 56T316 82T361 128T378 197Q378 233 359 259T312 308T250 350T188 393T140 445T121 515Q121 566 140 603T193 663T268 698T357 710Q447 710 519 679L498 616ZM349 882H425L500 738H456L384 840L276 738H232L349 882Z"  />
<glyph unicode="&#x15D;" horiz-adv-x="389" d="M5 79Q32 62 63 52T126 42Q149 42 174 47T221 63T256 94T270 144Q270 172 255 191T218 225T170 255T121 286T84 325T69 380Q69 418 87 445T132 489T193 514T258 522Q327 522 389 497L368 438Q343 452 314 460T255 468Q236 468 215 465T176 451T147 425T135 381Q135 359 150 343T188 312T237 283T286 249T324 206T339 148Q339 104 321 74T274 25T208 -3T134 -12Q94 -12 59 -6T-14 16L5 79ZM247 722H323L398 578H354L282 680L174 578H130L247 722Z"  />
<glyph unicode="&#x15E;" horiz-adv-x="500" d="M498 616Q432 650 357 650Q328 650 299 643T245 621T206 580T190 520Q190 490 209 468T256 425T318 385T380 341T428 284T447 206Q447 153 425 112T366 44T284 2Q239 -11 192 -12L151 -58L153 -60Q169 -55 178 -54T198 -52Q230 -52 252 -68T275 -117Q275 -138 263 -155T235 -181T197 -195T155 -200Q134 -200 108 -196T61 -184L75 -156Q97 -164 113 -167T146 -170Q158 -170 170 -168T191 -160T205 -145T211 -122Q211 -103 199 -93T166 -82Q153 -82 139 -86T113 -95L103 -83L162 -11Q112 -9 79 0Q37 13 14 26L35 92Q66 71 106 60T184 48Q219 48 254 56T316 82T361 128T378 197Q378 233 359 259T312 308T250 350T188 393T140 445T121 515Q121 566 140 603T193 663T268 698T357 710Q447 710 519 679L498 616Z"  />
<glyph unicode="&#x15F;" horiz-adv-x="389" d="M5 79Q32 62 63 52T126 42Q149 42 174 47T221 63T256 94T270 144Q270 172 255 191T218 225T170 255T121 286T84 325T69 380Q69 418 87 445T132 489T193 514T258 522Q327 522 389 497L368 438Q343 452 314 460T255 468Q236 468 215 465T176 451T147 425T135 381Q135 359 150 343T188 312T237 283T286 249T324 206T339 148Q339 104 321 74T274 25T208 -3T134 -12L93 -58L95 -60Q111 -55 120 -54T140 -52Q172 -52 194 -68T217 -117Q217 -138 205 -155T177 -181T139 -195T97 -200Q76 -200 50 -196T3 -184L17 -156Q39 -164 55 -167T88 -170Q100 -170 112 -168T133 -160T147 -145T153 -122Q153 -103 141 -93T108 -82Q95 -82 81 -86T55 -95L45 -83L104 -11Q80 -9 58 -5Q23 1 -14 16L5 79Z"  />
<glyph unicode="&#x160;" horiz-adv-x="500" d="M498 616Q432 650 357 650Q328 650 299 643T245 621T206 580T190 520Q190 490 209 468T256 425T318 385T380 341T428 284T447 206Q447 153 425 112T366 44T284 2T190 -12Q121 -12 79 0T14 26L35 92Q66 71 106 60T184 48Q219 48 254 56T316 82T361 128T378 197Q378 233 359 259T312 308T250 350T188 393T140 445T121 515Q121 566 140 603T193 663T268 698T357 710Q447 710 519 679L498 616ZM398 738H322L247 882H291L363 780L471 882H515L398 738Z"  />
<glyph unicode="&#x161;" horiz-adv-x="389" d="M5 79Q32 62 63 52T126 42Q149 42 174 47T221 63T256 94T270 144Q270 172 255 191T218 225T170 255T121 286T84 325T69 380Q69 418 87 445T132 489T193 514T258 522Q327 522 389 497L368 438Q343 452 314 460T255 468Q236 468 215 465T176 451T147 425T135 381Q135 359 150 343T188 312T237 283T286 249T324 206T339 148Q339 104 321 74T274 25T208 -3T134 -12Q94 -12 59 -6T-14 16L5 79ZM292 578H216L141 722H185L257 620L365 722H409L292 578Z"  />
<glyph unicode="&#x162;" horiz-adv-x="500" d="M101 698H594L582 638H370L236 0H164L300 638H88L101 698ZM147 -73H221L143 -217H86L147 -73Z"  />
<glyph unicode="&#x163;" horiz-adv-x="333" d="M199 624L271 649L240 510H373L360 456H229L175 204Q170 178 165 154T160 104Q160 42 218 42Q247 42 272 56L266 2Q252 -5 237 -8T202 -12Q148 -12 120 14T91 83Q91 99 94 121T100 164T108 204T114 230L163 456H61L75 510H175L199 624ZM108 -73H182L104 -217H47L108 -73Z"  />
<glyph unicode="&#x164;" horiz-adv-x="500" d="M101 698H594L582 638H370L236 0H164L300 638H88L101 698ZM388 738H312L237 882H281L353 780L461 882H505L388 738Z"  />
<glyph unicode="&#x165;" horiz-adv-x="339" d="M199 624L271 649L240 510H373L360 456H229L175 204Q170 178 165 154T160 104Q160 42 218 42Q247 42 272 56L266 2Q252 -5 237 -8T202 -12Q148 -12 120 14T91 83Q91 99 94 121T100 164T108 204T114 230L163 456H61L75 510H175L199 624ZM369 709H430L361 545H316L369 709Z"  />
<glyph unicode="&#x166;" horiz-adv-x="500" d="M103 489H268L300 638H88L101 698H594L582 638H370L338 489H503L492 436H327L236 0H164L257 436H92L103 489Z"  />
<glyph unicode="&#x167;" horiz-adv-x="333" d="M199 624L271 649L240 510H373L360 456H229L207 355H322L311 307H196L175 204Q170 178 165 154T160 104Q160 42 218 42Q247 42 272 56L266 2Q252 -5 237 -8T202 -12Q148 -12 120 14T91 83Q91 99 94 121T100 164T108 204T114 230L130 307H46L57 355H141L163 456H61L75 510H175L199 624Z"  />
<glyph unicode="&#x168;" horiz-adv-x="667" d="M594 266Q584 205 562 154T504 66T421 9T312 -12Q262 -12 220 2T147 44T99 113T82 208Q82 232 86 263T96 327T109 391T122 447L177 698H243L172 358Q169 343 166 324T159 285T153 246T151 211Q151 134 193 91T311 48Q356 48 391 63T452 104T495 166T522 243L623 698H687L594 266ZM578 854Q578 837 572 821T555 791T529 771T496 763Q481 763 467 768T439 778T412 787T384 792Q366 792 357 781T346 755H310Q310 772 316 788T333 817T359 838T392 846Q408 846 421 842T449 832T476 822T504 817Q522 817 531 827T542 854H578Z"  />
<glyph unicode="&#x169;" horiz-adv-x="556" d="M445 81Q440 55 438 37T433 0H370Q372 24 374 43T381 77H379Q353 36 309 12T217 -12Q148 -12 103 26T57 136Q57 162 62 189T72 241L129 510H195L137 229Q132 204 129 185T126 140Q126 95 151 69T224 42Q265 42 297 61T352 111T392 183T417 268L467 510H533L445 81ZM477 693Q477 676 471 660T454 630T428 610T395 602Q380 602 366 607T338 617T311 626T283 631Q265 631 256 620T245 594H209Q209 611 215 627T232 656T258 677T291 685Q307 685 320 681T348 671T375 661T403 656Q421 656 430 666T441 693H477Z"  />
<glyph unicode="&#x16A;" horiz-adv-x="667" d="M594 266Q584 205 562 154T504 66T421 9T312 -12Q262 -12 220 2T147 44T99 113T82 208Q82 232 86 263T96 327T109 391T122 447L177 698H243L172 358Q169 343 166 324T159 285T153 246T151 211Q151 134 193 91T311 48Q356 48 391 63T452 104T495 166T522 243L623 698H687L594 266ZM567 768H310L321 822H578L567 768Z"  />
<glyph unicode="&#x16B;" horiz-adv-x="556" d="M445 81Q440 55 438 37T433 0H370Q372 24 374 43T381 77H379Q353 36 309 12T217 -12Q148 -12 103 26T57 136Q57 162 62 189T72 241L129 510H195L137 229Q132 204 129 185T126 140Q126 95 151 69T224 42Q265 42 297 61T352 111T392 183T417 268L467 510H533L445 81ZM472 622H215L226 676H483L472 622Z"  />
<glyph unicode="&#x16C;" horiz-adv-x="667" d="M594 266Q584 205 562 154T504 66T421 9T312 -12Q262 -12 220 2T147 44T99 113T82 208Q82 232 86 263T96 327T109 391T122 447L177 698H243L172 358Q169 343 166 324T159 285T153 246T151 211Q151 134 193 91T311 48Q356 48 391 63T452 104T495 166T522 243L623 698H687L594 266ZM359 871Q367 840 391 828T446 815Q475 815 503 827T545 871H575Q570 846 558 825T528 789T488 764T440 755Q389 755 361 786T329 871H359Z"  />
<glyph unicode="&#x16D;" horiz-adv-x="556" d="M445 81Q440 55 438 37T433 0H370Q372 24 374 43T381 77H379Q353 36 309 12T217 -12Q148 -12 103 26T57 136Q57 162 62 189T72 241L129 510H195L137 229Q132 204 129 185T126 140Q126 95 151 69T224 42Q265 42 297 61T352 111T392 183T417 268L467 510H533L445 81ZM258 711Q258 679 279 662T331 644Q373 644 409 662T472 711H507Q493 689 476 667T438 626T391 596T338 584Q279 584 254 619T228 711H258Z"  />
<glyph unicode="&#x16E;" horiz-adv-x="667" d="M594 266Q584 205 562 154T504 66T421 9T312 -12Q262 -12 220 2T147 44T99 113T82 208Q82 232 86 263T96 327T109 391T122 447L177 698H243L172 358Q169 343 166 324T159 285T153 246T151 211Q151 134 193 91T311 48Q356 48 391 63T452 104T495 166T522 243L623 698H687L594 266ZM383 816Q383 790 401 775Q418 757 443 757Q469 757 486 775Q503 790 503 816Q503 842 486 859Q469 875 443 875Q418 875 401 859Q383 842 383 816ZM347 816Q347 858 375 884Q402 910 443 911Q484 910 512 884Q538 858 539 816Q538 775 512 749Q484 721 443 721Q402 721 375 749Q347 775 347 816Z"  />
<glyph unicode="&#x16F;" horiz-adv-x="556" d="M445 81Q440 55 438 37T433 0H370Q372 24 374 43T381 77H379Q353 36 309 12T217 -12Q148 -12 103 26T57 136Q57 162 62 189T72 241L129 510H195L137 229Q132 204 129 185T126 140Q126 95 151 69T224 42Q265 42 297 61T352 111T392 183T417 268L467 510H533L445 81ZM280 660Q280 634 297 615T344 596Q373 596 390 615T407 660Q407 686 390 704T344 723Q315 723 298 705T280 660ZM244 660Q244 680 252 698T274 729T306 751T344 759Q364 759 382 751T413 730T435 698T443 660Q443 640 436 622T415 590T383 568T344 560Q324 560 306 568T274 589T252 621T244 660Z"  />
<glyph unicode="&#x170;" horiz-adv-x="667" d="M594 266Q584 205 562 154T504 66T421 9T312 -12Q262 -12 220 2T147 44T99 113T82 208Q82 232 86 263T96 327T109 391T122 447L177 698H243L172 358Q169 343 166 324T159 285T153 246T151 211Q151 134 193 91T311 48Q356 48 391 63T452 104T495 166T522 243L623 698H687L594 266ZM550 882H629L512 738H465L550 882ZM412 882H491L374 738H327L412 882Z"  />
<glyph unicode="&#x171;" horiz-adv-x="556" d="M445 81Q440 55 438 37T433 0H370Q372 24 374 43T381 77H379Q353 36 309 12T217 -12Q148 -12 103 26T57 136Q57 162 62 189T72 241L129 510H195L137 229Q132 204 129 185T126 140Q126 95 151 69T224 42Q265 42 297 61T352 111T392 183T417 268L467 510H533L445 81ZM459 722H538L421 578H374L459 722ZM321 722H400L283 578H236L321 722Z"  />
<glyph unicode="&#x172;" horiz-adv-x="667" d="M594 266Q584 205 562 154T504 66T421 8Q378 -9 326 -12Q320 -16 313 -20Q294 -33 273 -51T236 -90T221 -129Q221 -145 232 -154T259 -164Q280 -164 298 -156T335 -131L350 -140Q332 -169 303 -184T235 -200Q201 -200 180 -184T158 -141Q158 -119 172 -99T209 -59T258 -25Q271 -17 281 -10Q249 -7 220 2Q178 17 147 44T99 113T82 208Q82 232 86 263T96 327T109 391T122 447L177 698H243L172 358Q169 343 166 324T159 285T153 246T151 211Q151 134 193 91T311 48Q356 48 391 63T452 104T495 166T522 243L623 698H687L594 266Z"  />
<glyph unicode="&#x173;" horiz-adv-x="556" d="M445 81Q440 55 438 37T433 0H419Q408 -8 389 -20T349 -51T312 -90T297 -129Q297 -145 308 -154T335 -164Q356 -164 374 -156T411 -131L426 -140Q408 -169 379 -184T311 -200Q277 -200 256 -184T234 -141Q234 -119 248 -99T285 -59T334 -25T377 0H370Q372 24 374 43T381 77H379Q353 36 309 12T217 -12Q148 -12 103 26T57 136Q57 162 62 189T72 241L129 510H195L137 229Q132 204 129 185T126 140Q126 95 151 69T224 42Q265 42 297 61T352 111T392 183T417 268L467 510H533L445 81Z"  />
<glyph unicode="&#x174;" horiz-adv-x="944" d="M104 698H171L220 78H222L528 698H611L651 78H653L963 698H1031L678 0H595L557 620H555L249 0H166L104 698ZM557 882H633L708 738H664L592 840L484 738H440L557 882Z"  />
<glyph unicode="&#x175;" horiz-adv-x="778" d="M65 510H130L168 69H170L410 510H485L534 69H536L757 510H828L563 0H486L434 441H432L193 0H118L65 510ZM437 722H513L588 578H544L472 680L364 578H320L437 722Z"  />
<glyph unicode="&#x176;" horiz-adv-x="611" d="M283 295L106 698H179L326 352L620 698H703L350 295L287 0H220L283 295ZM390 882H466L541 738H497L425 840L317 738H273L390 882Z"  />
<glyph unicode="&#x177;" horiz-adv-x="444" d="M207 1L139 -120Q116 -164 85 -190T2 -216Q-15 -216 -30 -213T-59 -202L-44 -148Q-36 -156 -25 -159T-3 -162Q30 -162 55 -137T94 -82L137 -1L65 510H131L183 71H185L424 510H492L207 1ZM264 722H340L415 578H371L299 680L191 578H147L264 722Z"  />
<glyph unicode="&#x178;" horiz-adv-x="611" d="M283 295L106 698H179L326 352L620 698H703L350 295L287 0H220L283 295ZM484 851H561L545 767H468L484 851ZM309 851H386L370 767H293L309 851Z"  />
<glyph unicode="&#x179;" horiz-adv-x="500" d="M-19 61L470 638H115L128 698H565L552 637L64 60H442L429 0H-31L-19 61ZM395 882H474L357 738H310L395 882Z"  />
<glyph unicode="&#x17A;" horiz-adv-x="444" d="M-8 58L372 456H83L95 510H468L456 451L71 54H377L367 0H-20L-8 58ZM336 722H415L298 578H251L336 722Z"  />
<glyph unicode="&#x17B;" horiz-adv-x="500" d="M-19 61L470 638H115L128 698H565L552 637L64 60H442L429 0H-31L-19 61ZM328 842H405L389 758H312L328 842Z"  />
<glyph unicode="&#x17C;" horiz-adv-x="444" d="M-8 58L372 456H83L95 510H468L456 451L71 54H377L367 0H-20L-8 58ZM272 730H349L333 646H256L272 730Z"  />
<glyph unicode="&#x17D;" horiz-adv-x="500" d="M-19 61L470 638H115L128 698H565L552 637L64 60H442L429 0H-31L-19 61ZM395 738H319L244 882H288L360 780L468 882H512L395 738Z"  />
<glyph unicode="&#x17E;" horiz-adv-x="444" d="M-8 58L372 456H83L95 510H468L456 451L71 54H377L367 0H-20L-8 58ZM319 578H243L168 722H212L284 620L392 722H436L319 578Z"  />
<glyph unicode="&#x192;" horiz-adv-x="556" d="M441 365H329L285 98Q276 45 265 -11T234 -112T180 -187T95 -216Q63 -216 50 -213T26 -206L44 -148Q53 -154 64 -158T88 -162Q121 -161 143 -138T180 -76T205 16T225 128L264 365H152L164 419H274L287 485Q297 534 311 575T346 644T396 689T464 705Q484 705 501 701T533 689L519 636Q496 651 464 651Q436 651 416 632T382 586T360 529T348 477L338 419H453L441 365Z"  />
<glyph unicode="&#x218;" horiz-adv-x="500" d="M498 616Q432 650 357 650Q328 650 299 643T245 621T206 580T190 520Q190 490 209 468T256 425T318 385T380 341T428 284T447 206Q447 153 425 112T366 44T284 2T190 -12Q121 -12 79 0T14 26L35 92Q66 71 106 60T184 48Q219 48 254 56T316 82T361 128T378 197Q378 233 359 259T312 308T250 350T188 393T140 445T121 515Q121 566 140 603T193 663T268 698T357 710Q447 710 519 679L498 616ZM158 -73H232L154 -217H97L158 -73Z"  />
<glyph unicode="&#x219;" horiz-adv-x="389" d="M5 79Q32 62 63 52T126 42Q149 42 174 47T221 63T256 94T270 144Q270 172 255 191T218 225T170 255T121 286T84 325T69 380Q69 418 87 445T132 489T193 514T258 522Q327 522 389 497L368 438Q343 452 314 460T255 468Q236 468 215 465T176 451T147 425T135 381Q135 359 150 343T188 312T237 283T286 249T324 206T339 148Q339 104 321 74T274 25T208 -3T134 -12Q94 -12 59 -6T-14 16L5 79ZM99 -73H173L95 -217H38L99 -73Z"  />
<glyph unicode="&#x21A;" horiz-adv-x="500" d="M101 698H594L582 638H370L236 0H164L300 638H88L101 698ZM147 -73H221L143 -217H86L147 -73Z"  />
<glyph unicode="&#x21B;" horiz-adv-x="333" d="M199 624L271 649L240 510H373L360 456H229L175 204Q170 178 165 154T160 104Q160 42 218 42Q247 42 272 56L266 2Q252 -5 237 -8T202 -12Q148 -12 120 14T91 83Q91 99 94 121T100 164T108 204T114 230L163 456H61L75 510H175L199 624ZM108 -73H182L104 -217H47L108 -73Z"  />
<glyph unicode="&#x237;" horiz-adv-x="222" d="M84 -60Q78 -87 70 -115T46 -165T6 -202T-56 -216Q-73 -216 -88 -213T-120 -207L-103 -150Q-95 -154 -86 -155T-68 -156Q-48 -156 -33 -147T-8 -124T9 -94T18 -62L135 510H201L84 -60Z"  />
<glyph unicode="&#x2C6;" horiz-adv-x="222" d="M149 722H225L300 578H256L184 680L76 578H32L149 722Z"  />
<glyph unicode="&#x2C7;" horiz-adv-x="222" d="M208 578H132L57 722H101L173 620L281 722H325L208 578Z"  />
<glyph unicode="&#x2C9;" horiz-adv-x="222" d="M299 614H42L53 668H310L299 614Z"  />
<glyph unicode="&#x2D8;" horiz-adv-x="222" d="M101 711Q101 679 122 662T174 644Q216 644 252 662T315 711H350Q336 689 319 667T281 626T234 596T181 584Q122 584 97 619T71 711H101Z"  />
<glyph unicode="&#x2D9;" horiz-adv-x="222" d="M153 730H230L214 646H137L153 730Z"  />
<glyph unicode="&#x2DA;" horiz-adv-x="222" d="M133 660Q133 634 150 615T197 596Q226 596 243 615T260 660Q260 686 243 704T197 723Q168 723 151 705T133 660ZM97 660Q97 680 105 698T127 729T159 751T197 759Q217 759 235 751T266 730T288 698T296 660Q296 640 289 622T268 590T236 568T197 560Q177 560 159 568T127 589T105 621T97 660Z"  />
<glyph unicode="&#x2DB;" horiz-adv-x="222" d="M213 -149Q188 -179 161 -194T89 -210Q54 -210 30 -195T6 -148Q6 -123 21 -101T57 -59T104 -25T149 0H200Q186 -8 164 -21T121 -53T85 -91T69 -133Q69 -152 79 -163T106 -174Q133 -174 151 -163T183 -135L213 -149Z"  />
<glyph unicode="&#x2DC;" horiz-adv-x="222" d="M303 693Q303 676 297 660T280 630T254 610T221 602Q206 602 192 607T164 617T137 626T109 631Q91 631 82 620T71 594H35Q35 611 41 627T58 656T84 677T117 685Q133 685 146 681T174 671T201 661T229 656Q247 656 256 666T267 693H303Z"  />
<glyph unicode="&#x2DD;" horiz-adv-x="222" d="M274 722H353L236 578H189L274 722ZM136 722H215L98 578H51L136 722Z"  />
<glyph unicode="&#x394;" horiz-adv-x="668" d="M400 646L42 57H505L400 646ZM-57 0L378 712H445L582 0H-57Z"  />
<glyph unicode="&#x3A9;" horiz-adv-x="743" d="M700 455Q700 393 683 341T632 247T550 179T440 140L421 50L619 49L608 0H361L400 181Q418 183 436 186T472 196Q513 210 544 236T597 296T628 371T639 453Q639 502 623 542T577 609T507 652T417 667Q353 667 298 641T203 571T139 470T116 350Q116 281 152 234T260 180L221 0H-19L-8 49H179L200 143Q125 166 90 223T55 355Q55 428 84 494T164 611T280 691T419 721Q479 721 530 703T619 650T678 566T700 455Z"  />
<glyph unicode="&#x3BC;" horiz-adv-x="556" d="M129 510H195L137 229Q132 204 129 185T126 140Q126 95 151 69T224 42Q265 42 297 61T352 111T392 183T417 268L467 510H533L445 81Q440 55 438 37T433 0H370Q372 24 374 43T381 77H379Q353 36 309 12T217 -12Q129 -12 90 38L37 -210H-29L129 510Z"  />
<glyph unicode="&#x3C0;" horiz-adv-x="559" d="M543 423H466L401 116Q399 104 396 92T393 67Q393 55 401 50T421 45Q433 45 445 48T468 56L458 10Q442 3 427 -1T395 -6Q371 -6 351 6T331 45Q331 61 334 77T340 109L407 423H147L58 0H-1L88 423H14L25 477H555L543 423Z"  />
<glyph unicode="&#x2013;" horiz-adv-x="500" d="M11 296H511L500 242H0L11 296Z"  />
<glyph unicode="&#x2014;" horiz-adv-x="1000" d="M11 296H1011L1000 242H0L11 296Z"  />
<glyph unicode="&#x2018;" horiz-adv-x="278" d="M245 698H306L204 480H124L245 698Z"  />
<glyph unicode="&#x2019;" horiz-adv-x="278" d="M215 698H295L174 480H113L215 698Z"  />
<glyph unicode="&#x201A;" horiz-adv-x="278" d="M83 84H163L42 -134H-19L83 84Z"  />
<glyph unicode="&#x201C;" horiz-adv-x="444" d="M406 698H467L365 480H285L406 698ZM239 698H300L198 480H118L239 698Z"  />
<glyph unicode="&#x201D;" horiz-adv-x="444" d="M220 698H300L179 480H118L220 698ZM387 698H467L346 480H285L387 698Z"  />
<glyph unicode="&#x201E;" horiz-adv-x="444" d="M250 84H330L209 -134H148L250 84ZM83 84H163L42 -134H-19L83 84Z"  />
<glyph unicode="&#x2020;" horiz-adv-x="556" d="M128 510H299L338 698H400L361 510H535L523 456H350L255 0H193L288 456H116L128 510Z"  />
<glyph unicode="&#x2021;" horiz-adv-x="556" d="M233 188H59L70 242H243L288 456H114L125 510H300L340 698H402L362 510H538L527 456H352L307 242H481L470 188H295L255 0H193L233 188Z"  />
<glyph unicode="&#x2022;" horiz-adv-x="500" d="M87 349Q87 385 100 417T138 472T193 510T261 524Q297 524 329 510T384 473T422 417T436 349Q436 313 422 282T385 226T329 189T261 175Q225 175 194 188T138 226T101 281T87 349Z"  />
<glyph unicode="&#x2026;" horiz-adv-x="1000" d="M760 84H842L825 0H743L760 84ZM427 84H509L492 0H410L427 84ZM94 84H176L159 0H77L94 84Z"  />
<glyph unicode="&#x2030;" horiz-adv-x="1000" d="M545 720H601L156 -22H100L545 720ZM195 387Q136 387 104 424T71 518Q71 552 82 585T115 645T165 688T232 705Q290 705 325 672T361 579Q361 543 350 509T317 447T265 404T195 387ZM473 41Q497 41 514 55T544 92T561 138T567 184Q567 216 551 239T502 263Q475 263 457 249T426 213T409 166T403 117Q403 84 422 63T473 41ZM464 -7Q405 -7 373 30T340 124Q340 158 351 191T384 251T434 294T501 311Q559 311 594 278T630 185Q630 149 619 115T586 53T534 10T464 -7ZM815 41Q839 41 856 55T886 92T903 138T909 184Q909 216 893 239T844 263Q817 263 799 249T768 213T751 166T745 117Q745 84 764 63T815 41ZM806 -7Q747 -7 715 30T682 124Q682 158 693 191T726 251T776 294T843 311Q901 311 936 278T972 185Q972 149 961 115T928 53T876 10T806 -7ZM204 435Q228 435 245 449T275 486T292 532T298 578Q298 610 282 633T233 657Q206 657 188 643T157 607T140 560T134 511Q134 478 153 457T204 435Z"  />
<glyph unicode="&#x2039;" horiz-adv-x="333" d="M34 269L224 474H296L100 269L253 64H187L34 269Z"  />
<glyph unicode="&#x203A;" horiz-adv-x="333" d="M299 269L109 64H37L233 269L80 474H146L299 269Z"  />
<glyph unicode="&#x2044;" horiz-adv-x="167" d="M302 720H359L-86 -22H-143L302 720Z"  />
<glyph unicode="&#x20AC;" horiz-adv-x="556" d="M625 622Q613 629 598 634T565 644T532 649T501 651Q450 651 406 635T325 591T259 525T210 442H551L530 394H191Q184 372 179 350T171 304H492L472 256H170Q172 161 223 105T372 48Q407 48 442 54T509 75L501 11Q469 -2 432 -7T359 -12Q233 -12 165 59T98 256H8L29 304H102Q108 348 122 394H38L59 442H139Q163 500 200 549T286 634T392 690T515 710Q549 710 584 705T651 685L625 622Z"  />
<glyph unicode="&#x2113;" horiz-adv-x="500" d="M453 626Q453 581 432 535T378 443T301 355T213 276Q200 220 193 186T182 132T177 104T176 89Q176 72 181 61T194 42T213 33T232 30Q254 30 277 39T332 72H334L350 38Q315 12 284 -1T219 -14Q175 -14 147 9T119 79Q119 85 120 93T124 118T132 163T148 236L77 174H75L58 207L160 291L216 557Q234 643 273 682T364 721Q403 721 428 695T453 626ZM403 622Q403 647 391 663T359 680Q334 680 312 656T275 568L224 332Q251 357 282 391T340 464T385 543T403 622Z"  />
<glyph unicode="&#x2122;" horiz-adv-x="990" d="M505 698H607L729 379L851 698H953V284H890V644H888L750 284H707L570 644H568V284H505V698ZM225 650H94V698H419V650H288V284H225V650Z"  />
<glyph unicode="&#x2126;" horiz-adv-x="743" d="M700 455Q700 393 683 341T632 247T550 179T440 140L421 50L619 49L608 0H361L400 181Q418 183 436 186T472 196Q513 210 544 236T597 296T628 371T639 453Q639 502 623 542T577 609T507 652T417 667Q353 667 298 641T203 571T139 470T116 350Q116 281 152 234T260 180L221 0H-19L-8 49H179L200 143Q125 166 90 223T55 355Q55 428 84 494T164 611T280 691T419 721Q479 721 530 703T619 650T678 566T700 455Z"  />
<glyph unicode="&#x212E;" horiz-adv-x="600" d="M157 259V78Q216 19 302 19Q365 19 411 47T495 139L530 118Q507 82 484 57T433 15T373 -9T302 -17Q243 -17 196 4T114 63T62 151T44 259Q44 317 62 367T114 455T195 513T302 535Q360 535 407 515T489 458T542 371T561 259H157ZM448 295V440Q385 500 301 500Q217 500 157 440V295H448Z"  />
<glyph unicode="&#x2202;" horiz-adv-x="489" d="M368 276Q354 294 337 311T299 342T256 363T209 371Q175 371 149 358T106 322T79 270T70 210Q70 180 79 149T105 93T148 53T209 37Q253 37 282 61T330 122T357 199T368 276ZM430 364Q430 328 427 286T416 202T392 122T352 54T292 6T209 -12Q162 -12 126 6T65 56T26 127T13 211Q13 254 26 292T63 360T123 406T205 423Q256 423 299 399T373 335Q373 349 373 363T374 391Q374 433 366 482T336 572T280 641T192 669Q157 669 133 657T81 624L48 664Q79 692 113 706T189 721Q261 721 307 687T381 601T419 485T430 364Z"  />
<glyph unicode="&#x2206;" horiz-adv-x="668" d="M400 646L42 57H505L400 646ZM-57 0L378 712H445L582 0H-57Z"  />
<glyph unicode="&#x220F;" horiz-adv-x="708" d="M576 -214V729H132V-214H72V786H636V-214H576Z"  />
<glyph unicode="&#x2211;" horiz-adv-x="598" d="M26 -214V-163L357 289L40 734V786H561V729H116L430 289L98 -158H573V-214H26Z"  />
<glyph unicode="&#x2212;" horiz-adv-x="600" d="M61 288H568V219H61V288Z"  />
<glyph unicode="&#x2215;" horiz-adv-x="167" d="M302 720H359L-86 -22H-143L302 720Z"  />
<glyph unicode="&#x2219;" horiz-adv-x="278" d="M111 310Q111 330 125 344T160 359Q180 359 195 345T210 310Q210 290 195 275T160 260Q140 260 126 275T111 310Z"  />
<glyph unicode="&#x221A;" horiz-adv-x="487" d="M255 -214H195L28 129L-17 107L-39 152L56 198L218 -142L409 786H465L255 -214Z"  />
<glyph unicode="&#x221E;" horiz-adv-x="731" d="M302 247Q286 259 268 275T230 305T188 329T145 339Q126 339 111 332T86 311T70 282T64 248Q64 209 86 185T149 160Q169 160 190 168T231 190T270 218T302 247ZM610 248Q610 287 589 313T525 340Q504 340 484 331T443 307T406 277T373 247Q389 233 407 218T444 189T485 168T529 160Q568 160 589 185T610 248ZM662 251Q662 221 653 195T626 149T583 118T526 107Q497 107 472 116T423 141T378 175T338 213Q317 195 296 176T252 142T203 117T147 107Q117 107 92 118T49 147T22 192T12 248Q12 277 21 303T48 349T91 380T146 392Q176 392 202 382T251 355T296 318T338 280Q357 299 377 319T421 355T469 382T524 393Q555 393 580 382T624 352T652 307T662 251Z"  />
<glyph unicode="&#x222B;" horiz-adv-x="540" d="M400 739Q400 724 391 715T366 706Q352 706 345 712T334 725T326 739T315 746Q303 746 296 733T285 700T280 657T278 611Q278 589 278 573T279 550V49Q279 17 278 -28T267 -114T232 -185T160 -214Q139 -214 121 -203T102 -168Q102 -154 111 -146T135 -137Q148 -137 154 -143T165 -155T172 -168T183 -174Q193 -174 199 -161T210 -129T216 -87T218 -44T219 -8Q219 6 219 9V504Q219 526 218 555T218 616T225 678T243 733T278 771T335 786Q346 786 357 784T378 776T394 761T400 739Z"  />
<glyph unicode="&#x2248;" horiz-adv-x="593" d="M530 230Q527 204 519 181T497 138T461 108T410 97Q377 97 340 108T265 134T192 159T129 171Q94 171 74 146T48 89H7Q11 114 19 138T41 182T76 212T128 224Q161 224 198 213T272 188T344 163T409 151Q445 151 464 174T490 230H530H530ZM530 396Q527 370 519 347T497 304T461 274T410 263Q377 263 339 274T264 299T191 324T129 336Q94 336 74 312T49 255H7Q11 281 19 305T41 348T76 378T128 390Q160 390 198 379T273 353T346 328T410 316Q446 316 465 340T490 396H530H530Z"  />
<glyph unicode="&#x2260;" horiz-adv-x="593" d="M231 123L155 -20L108 5L171 123H19V176H200L270 309H19V363H299L377 509L423 484L358 363H518V309H330L259 176H518V123H231Z"  />
<glyph unicode="&#x2264;" horiz-adv-x="593" d="M19 -26V28H519V-26H19ZM19 262V321L519 512V453L94 292L519 131V71L19 262Z"  />
<glyph unicode="&#x2265;" horiz-adv-x="593" d="M19 -26V28H519V-26H19ZM19 71V131L444 292L19 453V512L519 321V262L19 71Z"  />
<glyph unicode="&#x25CA;" horiz-adv-x="593" d="M296 686L158 356L296 26L435 356L296 686ZM325 -35H267L99 356L267 747H325L494 356L325 -35Z"  />
<glyph unicode="&#xE300;" horiz-adv-x="222" d="M271 738H229L107 882H186L271 738Z"  />
<glyph unicode="&#xE301;" horiz-adv-x="222" d="M254 882H333L216 738H169L254 882Z"  />
<glyph unicode="&#xE302;" horiz-adv-x="222" d="M197 882H273L348 738H304L232 840L124 738H80L197 882Z"  />
<glyph unicode="&#xE303;" horiz-adv-x="222" d="M256 738H180L105 882H149L221 780L329 882H373L256 738Z"  />
<glyph unicode="&#xE304;" horiz-adv-x="222" d="M351 854Q351 837 345 821T328 791T302 771T269 763Q254 763 240 768T212 778T185 787T157 792Q139 792 130 781T119 755H83Q83 772 89 788T106 817T132 838T165 846Q181 846 194 842T222 832T249 822T277 817Q295 817 304 827T315 854H351Z"  />
<glyph unicode="&#xE305;" horiz-adv-x="222" d="M289 842H366L350 758H273L289 842ZM114 842H191L175 758H98L114 842Z"  />
<glyph unicode="&#xE306;" horiz-adv-x="222" d="M347 768H90L101 822H358L347 768Z"  />
<glyph unicode="&#xE307;" horiz-adv-x="222" d="M154 871Q162 840 186 828T241 815Q270 815 298 827T340 871H370Q365 846 353 825T323 789T283 764T235 755Q184 755 156 786T124 871H154Z"  />
<glyph unicode="&#xE308;" horiz-adv-x="222" d="M185 816Q185 790 203 775Q220 757 245 757Q271 757 288 775Q305 790 305 816Q305 842 288 859Q271 875 245 875Q220 875 203 859Q185 842 185 816ZM149 816Q149 858 177 884Q204 910 245 911Q286 910 314 884Q340 858 341 816Q340 775 314 749Q286 721 245 721Q204 721 177 749Q149 775 149 816Z"  />
<glyph unicode="&#xE309;" horiz-adv-x="222" d="M322 882H401L284 738H237L322 882ZM184 882H263L146 738H99L184 882Z"  />
<glyph unicode="&#xE30A;" horiz-adv-x="222" d="M201 842H278L262 758H185L201 842Z"  />
<glyph unicode="&#xE30B;" horiz-adv-x="222" d="M124 709H185L116 545H71L124 709Z"  />
<glyph unicode="&#xE30C;" horiz-adv-x="222" d="M13 -73H87L9 -217H-48L13 -73Z"  />
<glyph unicode="&#xE30D;" horiz-adv-x="222" d="M203 572H132L210 716H264L203 572Z"  />
<glyph unicode="&#xFB01;" horiz-adv-x="556" d="M171 456H61L74 510H183L194 561Q201 594 211 629T241 694T289 743T363 762Q381 762 398 760T433 751L418 698Q414 700 402 704T367 708Q339 708 321 695T290 659T271 607T257 548L249 510H376L363 456H237L139 0H73L171 456ZM569 646H494L512 730H587L569 646ZM470 510H536L428 0H362L470 510Z"  />
<glyph unicode="&#xFB02;" horiz-adv-x="556" d="M171 456H61L74 510H183L194 561Q201 594 211 629T241 694T289 743T363 762Q381 762 398 760T433 751L418 698Q414 700 402 704T367 708Q339 708 321 695T290 659T271 607T257 548L249 510H376L363 456H237L139 0H73L171 456ZM522 750H588L428 0H362L522 750Z"  />

</font>
</defs>
</svg>
