<svg id="Layer_1" data-name="Layer 1" xmlns="http://www.w3.org/2000/svg" preserveAspectRatio="none" viewBox="0 0 293.1 106">
  <defs>
    <style>
      .cls-1 {
        fill: red;
      }
    </style>
  </defs>
  <title>a19276c8-efff-4c71-9cd1-3c39e0feeba2</title>
  <path d="M78.9,30.6,77,32.2l2,6.6-6-3.3-2,1.6,6.7,3.6-7.1,5.7-1.9-2.5,2.5-2-1.9-2.2-2.5,2-1.9-2.4,2.5-2-1.9-2.4-13,10.8,12.4,10L67,52.8a4.1,4.1,0,0,1,3.4,2.8l-2.2,2.8,1.4,1.1a17.2,17.2,0,0,1,11.2-4.6A15.6,15.6,0,0,1,96.3,70.6,16.3,16.3,0,0,1,94,79.1l2.3,1.8A4.8,4.8,0,0,1,93,84.8L90.8,83a16.2,16.2,0,0,1-11.3,4.6A15.4,15.4,0,0,1,63.9,71.9a18.4,18.4,0,0,1,2.1-8.3l-1.3-1.2-2.2,3a3.9,3.9,0,0,1-3.4-3l2.2-2.7L50.9,51.1V64.9h3.5a3.4,3.4,0,0,1,.7,2.1,5.4,5.4,0,0,1-.6,2.2H50.9V71c7.6,1.3,14,7.7,14,15.6s-6.3,14.6-14,15.9v2.8a5.4,5.4,0,0,1-2.5.7,6.8,6.8,0,0,1-2.9-.7v-2.8A16.2,16.2,0,0,1,31.7,86.6,15.9,15.9,0,0,1,45.5,71.2V69.4H41.9a4.2,4.2,0,0,1-.6-2.2,3.9,3.9,0,0,1,.6-2.2h3.6V51.1L34.9,59.8l2.3,2.7a4.2,4.2,0,0,1-3.5,3l-2.2-3-1.4,1.2a16.1,16.1,0,0,1,2.2,8.3A15.4,15.4,0,0,1,16.9,87.6,16,16,0,0,1,5.6,83L3.3,84.8A5.2,5.2,0,0,1,0,80.9l2.2-1.8A18.4,18.4,0,0,1,0,70.6,15.6,15.6,0,0,1,15.5,54.8a17.2,17.2,0,0,1,11.3,4.6l1.3-1-2.2-2.9a4.3,4.3,0,0,1,3.5-2.8l2.2,2.8L44,45.6,31,34.8l-1.9,2.4,2.5,2-1.9,2.4-2.5-2-1.9,2.2,2.4,2-1.9,2.5-7-5.7,6.6-3.6-1.9-1.6-6,3.3,2-6.6-1.9-1.6-2.2,7.2L8.2,32.1l1.9-2.3,2.4,2,2-2.3L12,27.3,13.9,25l2.5,1.9,1.8-2.2-5.5-4.3A7.6,7.6,0,0,1,16.1,16L45.5,40V24h-3V27h-3V24H36.5V27H33.4V18l7,3V18.5l-6.5-2.7,6.5-2.5V10.8l-7,2.8V4.5h3.1V7.7h3.1V4.5h3V7.7h3V.5A8,8,0,0,1,48.3,0a7.9,7.9,0,0,1,2.7.5V40L80.3,16a8.6,8.6,0,0,1,3.4,4.3l-5.6,4.3L80,26.9,82.5,25l1.9,2.2-2.5,2.2,1.9,2.3,2.5-2,1.9,2.3-7.1,5.7ZM18.9,74A4.3,4.3,0,0,0,23,78.4l-3.7,2.9c-2.5-1-4.9-4-4.9-6.7a5.7,5.7,0,0,1,.4-2h-.7c-3.4,0-6.3-3.2-6.9-6.5l3.8-3a4,4,0,0,0-.1,1.1,4.3,4.3,0,0,0,4.1,4,4.4,4.4,0,0,0,4.3-4.1,4.5,4.5,0,0,0-4.8-4.6c-5.2,0-10.3,5-10.3,11.6a11.2,11.2,0,0,0,1.3,5.3L8,74.7a6.2,6.2,0,0,1,3.3,4.1L8.9,80.6a11.8,11.8,0,0,0,7.8,2.8c5.9,0,10.7-4.8,10.7-9a4.3,4.3,0,0,0-4.2-4.6A4.3,4.3,0,0,0,18.9,74Zm31.5,9.1a4.2,4.2,0,0,0,4.1,4.2c1.6,0,2.2-.6,3.4-1.6v4.8a7.3,7.3,0,0,1-3.6,1c-2.5,0-4.7-.7-6-3-1.5,2.2-3.6,3-6.2,3a7.6,7.6,0,0,1-3.6-1V85.8a4.3,4.3,0,0,0,3.4,1.6A4.2,4.2,0,0,0,46,83.1a4,4,0,0,0-3.9-4.2c-4.3,0-6.2,4.1-6.2,8a11.6,11.6,0,0,0,9.5,11.3V95.3a5.9,5.9,0,0,1,2.7-.5,6.1,6.1,0,0,1,2.8.5v2.9c5-.7,9.5-6,9.5-11.3s-1.6-8-6.2-8A4.1,4.1,0,0,0,50.4,83.1Zm26.4-19a4.6,4.6,0,0,0,4.5,4.1,4.3,4.3,0,0,0,4.1-4c0-.3-.1-.6-.1-1.1l3.7,3c-.6,3.6-3.8,6.8-7.5,6.4a5.7,5.7,0,0,1,.3,2c0,2.7-2.3,5.7-4.9,6.7l-3.7-2.9a4.3,4.3,0,1,0-.2-8.6,4.4,4.4,0,0,0-4.2,4.7c0,3.1,3.7,8.9,10.8,8.9a11.4,11.4,0,0,0,7.7-2.8l-2.3-1.8a6.2,6.2,0,0,1,3.3-4.1l2.3,1.8a11.3,11.3,0,0,0,1.4-5.3c0-5.1-3.9-11.6-10.2-11.6A4.7,4.7,0,0,0,76.8,64.2Z"/>
  <path class="cls-1" d="M171.2,63.9c0,22-12,24.6-24,24.6-20.7,0-25-10.5-25-25.6V20.3h-7.6V16.2h28.9v4.1h-8.2V61.6c0,14.6,3.8,21.8,14.3,21.8s15.9-5.3,15.9-20.4V20.3h-7.7V16.2h20.5v4.1h-7Zm19.6,19.7V20.3h-7.5V16.2h32c13.6,0,20.4,7.7,20.4,16.7s-8.7,15-16.5,16.6c15.1,1.4,19.2,11.1,19.2,18.2,0,14.5-12.4,20-24.5,20H182.9V83.6Zm31.9-49.9c0-6.7-3.4-13.4-11-13.4h-8.1V47.7h7.3C218.9,47.7,222.7,41,222.7,33.7Zm2.6,34c0-9.5-4.1-15.9-13.7-15.9h-8V83.6h6.4C220.2,83.6,225.3,77.6,225.3,67.7Zm45.1-48.3c-7.5,0-12.4,4.5-12.4,12.2s7.6,10.4,15,12.9c4.4,1.5,10,3.6,13.8,7.3s6.4,9.2,6.3,15.9c-.3,12.5-9,20.9-24.4,20.9-5.8,0-14.8-1.3-20.2-4.5l-.6-18.7h4.5c.4,12.6,6.3,19.2,16.7,19.2,8.3,0,13-5.6,13-14.1S276.1,60,266.8,56.9c-3-1-8.9-3.2-13.1-7.3a18.5,18.5,0,0,1-5.5-13.4c0-14.6,10.4-20.9,23.3-20.9,5.1,0,12.8,1.8,17.3,4.4l.4,16.3h-4.5C283.7,24.4,278.7,19.3,270.4,19.3Z"/>
</svg>
